<?xml version="1.0" standalone="no"?>
<!DOCTYPE svg PUBLIC "-//W3C//DTD SVG 20010904//EN"
 "http://www.w3.org/TR/2001/REC-SVG-20010904/DTD/svg10.dtd">
<svg version="1.0" xmlns="http://www.w3.org/2000/svg"
 width="180.000000pt" height="180.000000pt" viewBox="0 0 180.000000 180.000000"
 preserveAspectRatio="xMidYMid meet">
<metadata>
Created by potrace 1.14, written by Peter Selinger 2001-2017
</metadata>
<g transform="translate(0.000000,180.000000) scale(0.100000,-0.100000)"
fill="#000000" stroke="none">
<path d="M1460 1784 c-124 -6 -233 -12 -242 -13 -10 -1 -25 -16 -34 -33 -9
-18 -17 -34 -18 -35 0 0 -197 -9 -436 -19 -239 -9 -439 -20 -443 -24 -7 -6
-289 -1441 -284 -1446 1 -1 132 -27 292 -58 280 -54 309 -57 830 -101 297 -25
563 -48 592 -52 l52 -6 5 34 c3 19 7 295 11 614 3 319 8 709 12 868 l6 287
-59 -2 c-32 0 -160 -7 -284 -14z m324 -146 c-3 -84 -14 -476 -24 -871 -10
-395 -20 -720 -22 -723 -4 -4 -1319 133 -1324 138 -1 2 19 44 44 93 l47 90 49
6 c63 7 68 13 186 227 52 95 97 172 100 172 4 0 32 -92 64 -205 37 -130 65
-210 77 -221 14 -13 56 -21 165 -31 130 -12 149 -12 170 2 13 8 26 25 29 38 4
14 -55 204 -160 516 -91 271 -165 500 -165 507 0 25 180 375 195 381 12 4 280
20 542 32 l33 1 -6 -152z m-795 -242 c7 -8 45 -113 85 -233 l73 -219 -73 -146
-73 -146 -74 75 c-41 42 -79 73 -84 70 -6 -4 -55 -87 -109 -184 -124 -225
-132 -233 -218 -233 -70 0 -106 20 -106 58 0 16 479 932 502 959 14 17 63 16
77 -1z m340 -1047 c-14 -27 -46 -41 -77 -34 -23 5 -31 16 -51 73 -18 52 -37
81 -85 132 -34 36 -72 77 -84 91 l-23 27 72 143 72 144 93 -279 c72 -213 91
-283 83 -297z"/>
</g>
</svg>
