<svg width="16" height="16" viewBox="0 0 16 16" fill="none" xmlns="http://www.w3.org/2000/svg">
<g clip-path="url(#clip0_273_1179)">
<path fill-rule="evenodd" clip-rule="evenodd" d="M-21.0959 -71.4208H-13.8959C-13.8266 -71.4214 -13.7591 -71.3989 -13.7041 -71.3564L-13.6978 -71.3508C-13.6878 -71.3427 -13.6778 -71.3346 -13.6684 -71.3252L-9.55595 -67.2127L-9.5397 -67.1952V-67.1958C-9.48283 -67.1315 -9.45533 -67.0471 -9.46345 -66.9621V-57.5808C-9.4647 -56.9183 -10.001 -56.3814 -10.6635 -56.3808H-21.0959C-21.7584 -56.3814 -22.2947 -56.9183 -22.2959 -57.5808V-70.2208C-22.2947 -70.8827 -21.7584 -71.4196 -21.0959 -71.4208ZM147.16 0.5792H154.367H154.366C154.434 0.579825 154.499 0.602325 154.553 0.643575L154.559 0.647325H154.56C154.57 0.654825 154.58 0.663574 154.589 0.67295L158.701 4.78543C158.707 4.79106 158.712 4.7973 158.718 4.80293H158.718C158.774 4.86668 158.802 4.95168 158.794 5.03668V14.4199C158.793 15.0818 158.256 15.6186 157.594 15.6199H147.16C146.498 15.6186 145.961 15.0818 145.96 14.4199V1.77987C145.961 1.11738 146.498 0.581122 147.16 0.579874L147.16 0.5792ZM-69.4479 -18.6432V-22.2206C-69.4473 -22.8831 -68.9104 -23.42 -68.2479 -23.4206H-61.0479C-60.9786 -23.4213 -60.9111 -23.3988 -60.8561 -23.3569C-60.8536 -23.355 -60.8511 -23.3531 -60.8486 -23.3519C-60.8386 -23.3438 -60.8298 -23.3344 -60.8204 -23.3256L-56.708 -19.2132C-56.7023 -19.2075 -56.6973 -19.2025 -56.6917 -19.1957C-56.6348 -19.1313 -56.6073 -19.0469 -56.6155 -18.9619V-9.58063C-56.6161 -8.91814 -57.1523 -8.38188 -57.8148 -8.38126H-68.2505C-68.913 -8.38188 -69.4493 -8.91814 -69.4505 -9.58063V-13.1587C-70.2105 -13.8681 -70.6411 -14.8619 -70.6399 -15.9013C-70.6405 -16.9413 -70.2086 -17.9344 -69.4479 -18.6432ZM-64.6729 -18.1063C-65.2579 -18.6913 -66.051 -19.0201 -66.8785 -19.0201C-67.7054 -19.0201 -68.4985 -18.6913 -69.0835 -18.1063C-69.6684 -17.5213 -69.9972 -16.7282 -69.9972 -15.9014C-69.9972 -15.0739 -69.6684 -14.2807 -69.0835 -13.6964C-68.4985 -13.1114 -67.7053 -12.7827 -66.8785 -12.7827C-66.051 -12.7827 -65.2579 -13.1114 -64.6729 -13.6964C-64.0885 -14.2814 -63.7604 -15.0745 -63.7604 -15.9014C-63.7604 -16.7282 -64.0885 -17.5214 -64.6729 -18.1063ZM-60.1666 -19.3076L-57.7041 -19.3069L-60.7254 -22.3282V-19.8663V-19.8669C-60.7241 -19.5582 -60.4741 -19.3082 -60.1654 -19.3069L-60.1666 -19.3076ZM-36.1106 -16.822H-43.1388V-15.3745L-42.9732 -15.5407L-42.9726 -15.5401C-42.4488 -16.0607 -41.6026 -16.0607 -41.0788 -15.5401L-38.8607 -13.322L-38.1932 -13.9895V-13.9901C-37.8207 -14.3608 -37.2182 -14.3608 -36.8457 -13.9901L-36.1094 -13.2539L-36.1106 -16.822ZM-43.1388 -14.4688V-11.6656H-40.5175L-39.3138 -12.8694L-41.5312 -15.0875C-41.805 -15.3575 -42.2456 -15.3575 -42.52 -15.0875L-43.1388 -14.4688ZM-39.6119 -11.6656H-36.1106V-12.3494L-37.2982 -13.5375C-37.42 -13.6588 -37.6175 -13.6588 -37.7394 -13.5375L-38.6338 -12.6413L-39.6119 -11.6656ZM34.3673 0.578672C34.4335 0.580547 34.4973 0.602423 34.5504 0.643047C34.5635 0.652422 34.576 0.663047 34.5873 0.674922L38.6998 4.7874L38.7091 4.79615L38.7154 4.80365H38.716C38.7723 4.86803 38.8004 4.95302 38.7916 5.03866V14.4193C38.7916 15.0812 38.2547 15.6181 37.5929 15.6193H27.1585C26.496 15.6181 25.9591 15.0812 25.9585 14.4193V1.7793C25.9597 1.11681 26.496 0.58055 27.1585 0.579302H34.3673V0.578672ZM35.2398 4.69307H37.7017L34.6804 1.67179V4.13307C34.681 4.44182 34.931 4.69245 35.2398 4.6937L35.2398 4.69307ZM123.158 0.578672H130.358C130.428 0.578047 130.495 0.600548 130.55 0.643047L130.556 0.648672C130.566 0.656797 130.576 0.664921 130.586 0.674297L134.698 4.78678C134.703 4.79178 134.709 4.7974 134.714 4.80365C134.77 4.86803 134.798 4.9524 134.791 5.0374V14.4193H134.793C134.792 15.0812 134.255 15.6181 133.593 15.6193H123.158C122.496 15.6181 121.959 15.0812 121.958 14.4193V1.77932C121.959 1.11682 122.496 0.580565 123.158 0.579317L123.158 0.578672ZM99.5182 6.98363V3.3942C99.5188 2.85669 99.9544 2.42107 100.492 2.41982H105.852C105.921 2.41982 105.989 2.44233 106.044 2.4842C106.044 2.48607 106.048 2.4867 106.049 2.48857C106.06 2.4967 106.069 2.50545 106.078 2.51482L109.139 5.57546C109.142 5.57796 109.145 5.58109 109.148 5.58421C109.15 5.58734 109.152 5.58921 109.154 5.59171C109.211 5.65609 109.239 5.74109 109.231 5.82672V6.98235H110.374C110.586 6.98235 110.79 7.06673 110.94 7.21672C111.09 7.36672 111.174 7.57047 111.174 7.78235V7.96298C111.174 8.40485 110.816 8.76298 110.374 8.76298H109.231V12.8017C109.23 13.3392 108.794 13.7754 108.256 13.7767H100.492C99.9539 13.7755 99.5182 13.3392 99.5182 12.8017V8.76426H98.3751C97.9332 8.76426 97.5751 8.40613 97.5751 7.96426V7.78363C97.5751 7.34239 97.9332 6.98363 98.3751 6.98363H99.5182ZM110.378 7.62363H98.375C98.2862 7.62363 98.215 7.69551 98.215 7.78363V7.96426C98.215 8.00676 98.2318 8.04738 98.2618 8.07738C98.2918 8.10738 98.3325 8.12426 98.375 8.12426H110.378C110.42 8.12426 110.461 8.10738 110.491 8.07738C110.521 8.04738 110.538 8.00676 110.538 7.96426V7.78363C110.538 7.74176 110.521 7.70051 110.491 7.67051C110.461 7.64051 110.42 7.62363 110.378 7.62363ZM106.507 5.47995H108.142L106.172 3.51051V5.14491H106.173C106.174 5.3299 106.323 5.47931 106.507 5.47995ZM-44.8414 -23.4224H-37.6407C-37.5713 -23.4231 -37.5038 -23.4006 -37.4488 -23.3581C-37.447 -23.3562 -37.4451 -23.3549 -37.4432 -23.3531H-37.4413V-23.3537C-37.432 -23.3449 -37.4226 -23.3362 -37.4132 -23.3268L-33.3007 -19.2143C-33.2951 -19.2087 -33.2901 -19.2037 -33.2845 -19.1968C-33.2276 -19.1331 -33.2001 -19.0481 -33.2082 -18.9631V-9.58182C-33.2089 -8.91995 -33.7451 -8.38369 -34.4076 -8.38307H-44.8439H-44.8433C-45.5058 -8.38369 -46.0427 -8.91995 -46.0433 -9.58182V-22.2218C-46.0427 -22.8843 -45.5058 -23.4212 -44.8433 -23.4218L-44.8414 -23.4224ZM-36.7601 -19.3087H-34.2982L-37.3188 -22.3287V-19.8668C-37.3182 -19.558 -37.0682 -19.308 -36.7594 -19.3068L-36.7601 -19.3087ZM-38.4414 -15.8975C-38.5989 -15.8969 -38.7401 -15.8012 -38.8007 -15.6562C-38.8607 -15.5106 -38.8282 -15.3431 -38.717 -15.2312C-38.6051 -15.12 -38.4376 -15.0875 -38.2926 -15.1475C-38.147 -15.2081 -38.052 -15.3494 -38.0514 -15.5069C-38.0514 -15.6106 -38.092 -15.71 -38.1651 -15.7831C-38.2383 -15.8563 -38.3376 -15.8975 -38.4414 -15.8975ZM-39.1689 -16.2356C-38.767 -16.6375 -38.1151 -16.6375 -37.7126 -16.2356C-37.5195 -16.0425 -37.4107 -15.7806 -37.4107 -15.5069C-37.4107 -15.2337 -37.5195 -14.9719 -37.7126 -14.7787C-38.1151 -14.3769 -38.767 -14.3769 -39.1689 -14.7787C-39.362 -14.9719 -39.4707 -15.2337 -39.4707 -15.5069C-39.4707 -15.7806 -39.362 -16.0425 -39.1689 -16.2356ZM-20.8415 -23.4225H-13.6409C-13.5715 -23.4231 -13.504 -23.4006 -13.449 -23.3581C-13.4465 -23.3562 -13.4446 -23.355 -13.4421 -23.3537C-13.4321 -23.3456 -13.4221 -23.3362 -13.4127 -23.3275L-9.30089 -19.215L-9.30152 -19.2144C-9.29527 -19.2094 -9.28964 -19.2031 -9.28402 -19.1969C-9.22839 -19.1325 -9.20089 -19.0481 -9.20839 -18.9632V-9.58187H-9.20589C-9.20714 -8.91999 -9.74402 -8.38374 -10.4059 -8.38312H-20.8409C-21.5028 -8.38374 -22.0397 -8.91999 -22.0409 -9.58187V-22.2219C-22.0397 -22.8844 -21.5034 -23.4212 -20.8409 -23.4219L-20.8415 -23.4225ZM-12.7602 -19.3087H-10.2983L-13.3183 -22.3287V-19.8668C-13.3177 -19.5581 -13.0677 -19.3081 -12.7589 -19.3068L-12.7602 -19.3087ZM3.15915 -23.4206H10.3617C10.4311 -23.4212 10.4986 -23.3987 10.5536 -23.3568C10.5555 -23.355 10.558 -23.3531 10.5598 -23.3518C10.5698 -23.3437 10.5798 -23.3343 10.5892 -23.3256L14.7017 -19.2125C14.7073 -19.2068 14.7123 -19.2018 14.7179 -19.195V-19.1956C14.7748 -19.1312 14.8023 -19.0468 14.7942 -18.9618V-9.58056C14.7929 -8.91806 14.2561 -8.38181 13.5942 -8.38118H3.15914C2.49664 -8.38181 1.95976 -8.91806 1.95914 -9.58056V-22.2206C1.95977 -22.8831 2.49665 -23.4193 3.15915 -23.4206ZM11.2411 -19.3068H13.703L10.6817 -22.3287V-19.8668C10.6823 -19.5581 10.9323 -19.3081 11.2411 -19.3068ZM37.0331 -9.09866V-9.09928C36.9637 -9.08553 36.8924 -9.07866 36.8212 -9.07803H26.8906C26.2519 -9.07928 25.7344 -9.59679 25.7338 -10.2355V-22.2643C25.7344 -22.9025 26.2519 -23.42 26.8906 -23.4206H33.7425C33.8119 -23.4212 33.8794 -23.3987 33.9344 -23.3568C33.9362 -23.355 33.9387 -23.3531 33.9412 -23.3518C33.9512 -23.3437 33.9606 -23.335 33.97 -23.3256L37.8825 -19.4131H37.8818C37.8856 -19.41 37.8887 -19.4069 37.8912 -19.4031C37.8931 -19.4006 37.8956 -19.3981 37.8975 -19.3962C37.9543 -19.3319 37.9824 -19.2469 37.9749 -19.1606V-10.6969L38.7587 -9.9138C39.3193 -9.35318 38.9243 -8.38318 38.1237 -8.38318C37.8856 -8.38255 37.6574 -8.47693 37.4887 -8.64505L37.0331 -9.09866ZM34.5806 -19.5049H36.8843L34.0624 -22.3268V-20.0231H34.063C34.0636 -19.7381 34.2948 -19.5069 34.5799 -19.5063L34.5806 -19.5049ZM36.6212 -10.7881L36.6175 -10.7831V-10.7812L36.6181 -10.7818C36.52 -10.6812 36.52 -10.5206 36.6181 -10.42L37.9437 -9.09434V-9.09497C38.0169 -9.01997 38.1275 -8.99684 38.2244 -9.03684C38.3206 -9.07684 38.3837 -9.17184 38.3825 -9.27622C38.3831 -9.34434 38.3562 -9.40997 38.3081 -9.45872L36.9819 -10.785C36.9337 -10.8337 36.8681 -10.8606 36.7994 -10.8606C36.7331 -10.8612 36.6687 -10.8362 36.6206 -10.79L36.6212 -10.7881ZM34.4281 -14.5625C33.5512 -14.5625 32.84 -13.8513 32.84 -12.9744C32.84 -12.5531 33.0075 -12.1487 33.305 -11.8512C33.6031 -11.5531 34.0068 -11.3863 34.4281 -11.3863C34.8493 -11.3856 35.2537 -11.5525 35.5512 -11.8506C35.85 -12.1481 36.0175 -12.5525 36.0168 -12.9744C36.0168 -13.8513 35.3056 -14.5625 34.4281 -14.5625ZM33.9606 -12.5062C34.0856 -12.3812 34.0856 -12.1787 33.9606 -12.0537C33.9006 -11.9937 33.8187 -11.9599 33.7344 -11.9599C33.6494 -11.9599 33.5675 -11.9937 33.5075 -12.0537C33.2631 -12.2974 33.1262 -12.6287 33.1262 -12.9737C33.1262 -13.3193 33.2631 -13.6499 33.5075 -13.8937C33.5675 -13.9543 33.6493 -13.9881 33.7344 -13.9881C33.8187 -13.9881 33.9006 -13.9543 33.9606 -13.8937C34.085 -13.7693 34.085 -13.5674 33.9606 -13.4424C33.7019 -13.1837 33.7019 -12.7649 33.9606 -12.5062ZM51.16 -23.418H58.3606C58.43 -23.4186 58.4975 -23.3961 58.5525 -23.3543C58.5544 -23.3518 58.5562 -23.3505 58.5587 -23.3493C58.5687 -23.3411 58.5787 -23.3318 58.5881 -23.323L62.7 -19.2105L62.6993 -19.2099C62.7056 -19.2049 62.7112 -19.1993 62.7162 -19.193C62.7725 -19.1287 62.8 -19.0443 62.7931 -18.9587V-9.57739H62.795V-9.57801C62.7937 -8.91552 62.2568 -8.37926 61.595 -8.37864H51.1593C50.4974 -8.37926 49.9605 -8.91552 49.9593 -9.57801V-22.218C49.9605 -22.8799 50.4968 -23.4168 51.1593 -23.418H51.16ZM59.2413 -19.3043H61.7032L58.6819 -22.3286V-19.8667C58.6825 -19.5579 58.9325 -19.3079 59.2413 -19.3067L59.2413 -19.3043ZM57.9825 -17.5049C57.0963 -18.3918 55.6588 -18.3918 54.7726 -17.5049C54.347 -17.0799 54.1082 -16.5024 54.1082 -15.9006C54.1082 -15.2987 54.347 -14.7212 54.7726 -14.2963C55.6595 -13.4106 57.0958 -13.4106 57.9825 -14.2963C58.4081 -14.7212 58.6475 -15.2988 58.6475 -15.9006C58.6475 -16.5024 58.4081 -17.08 57.9825 -17.5049ZM56.8994 -16.8743V-16.8749C57.0244 -16.9999 57.2275 -16.9999 57.3519 -16.8749C57.4769 -16.7499 57.4769 -16.548 57.3519 -16.423L56.8294 -15.9005L57.3519 -15.378C57.4769 -15.253 57.4769 -15.0512 57.3519 -14.9262C57.2275 -14.8012 57.0244 -14.8012 56.8994 -14.9262L56.3775 -15.448L55.8556 -14.9262L55.8563 -14.9268C55.7313 -14.8018 55.5288 -14.8018 55.4038 -14.9268C55.2794 -15.0518 55.2794 -15.2537 55.4038 -15.3787L55.9263 -15.9012L55.4038 -16.4236V-16.423C55.2794 -16.548 55.2794 -16.7499 55.4038 -16.8749C55.5288 -16.9999 55.7313 -16.9999 55.8563 -16.8749L56.3775 -16.353L56.8994 -16.8743ZM82.3906 -13.288H73.8725C73.325 -13.288 72.8563 -13.7137 72.8563 -14.2574V-21.9669C72.8563 -22.5106 73.325 -22.9362 73.8725 -22.9362H85.6407C86.1882 -22.9362 86.6557 -22.5112 86.6557 -21.9669V-17.16C87.0038 -17.0187 87.2507 -16.7037 87.3063 -16.3325C87.3363 -16.1418 87.3701 -16.0006 87.3426 -15.8062C87.5007 -15.6856 87.5757 -15.565 87.6888 -15.4081V-15.4087C87.9676 -15.0331 87.9676 -14.5193 87.6888 -14.1437C87.5757 -13.9868 87.5001 -13.8662 87.3426 -13.7456C87.3688 -13.5506 87.3363 -13.41 87.3063 -13.2193V-13.22C87.2382 -12.7562 86.8738 -12.3931 86.4101 -12.3256L86.3926 -12.3225V-9.18502C86.3919 -9.05877 86.3169 -8.94502 86.2013 -8.8944C86.0857 -8.84377 85.9513 -8.86564 85.8576 -8.95064L84.8532 -9.87501L83.8651 -8.96376C83.7744 -8.86939 83.6363 -8.84001 83.5151 -8.88876C83.3944 -8.93752 83.3151 -9.0544 83.3151 -9.18502V-12.3213L83.2976 -12.3245C82.8344 -12.392 82.4713 -12.7557 82.4032 -13.2188C82.3994 -13.242 82.3957 -13.2651 82.3913 -13.2876L82.3906 -13.288ZM86.0168 -17.273L86.0175 -21.9668H86.0156C86.0156 -22.1586 85.8362 -22.2968 85.6406 -22.2968H73.8724C73.6762 -22.2968 73.4968 -22.1586 73.4968 -21.9668V-14.2573C73.4968 -14.0654 73.6762 -13.9273 73.8724 -13.9273H82.1793C82.1249 -13.9936 82.0768 -14.0642 82.0193 -14.1448C81.9299 -14.2667 81.8674 -14.4061 81.8349 -14.5536H75.1913C75.015 -14.5536 74.8713 -14.6967 74.8713 -14.8736C74.8713 -14.9879 74.8263 -15.0967 74.7456 -15.1773C74.665 -15.2579 74.5556 -15.3029 74.4413 -15.3029C74.265 -15.3029 74.1213 -15.4461 74.1213 -15.6229V-20.6023C74.1213 -20.7792 74.265 -20.9223 74.4413 -20.9223C74.5556 -20.9223 74.665 -20.9673 74.7456 -21.0479C74.8263 -21.1292 74.8719 -21.2385 74.8713 -21.3523C74.8713 -21.5292 75.015 -21.6723 75.1913 -21.6723H84.3224C84.4074 -21.6723 84.4887 -21.6385 84.5487 -21.5785C84.6087 -21.5185 84.6425 -21.4373 84.6425 -21.3523C84.6425 -21.2385 84.6875 -21.1292 84.7681 -21.0485C84.8481 -20.9679 84.9574 -20.9223 85.0712 -20.9223C85.1562 -20.9223 85.2375 -20.8885 85.2975 -20.8285C85.3575 -20.7685 85.3912 -20.6873 85.3912 -20.6023V-17.6735C85.4231 -17.6541 85.455 -17.6335 85.4875 -17.6097C85.6431 -17.4954 85.7637 -17.421 85.8843 -17.2635V-17.2629C85.9287 -17.2691 85.9737 -17.2722 86.0181 -17.2722L86.0168 -17.273ZM84.3355 -16.8817L84.3362 -16.8824C84.3074 -16.8461 84.2849 -16.8061 84.2699 -16.7624C84.2362 -16.6849 84.1724 -16.6236 84.093 -16.593C84.0143 -16.5624 83.9262 -16.5642 83.8487 -16.598C83.7006 -16.6617 83.5487 -16.6205 83.3974 -16.598H83.3968C83.2087 -16.5699 83.0606 -16.4217 83.0318 -16.2336C83.0081 -16.0824 82.9656 -15.9299 83.0318 -15.7824V-15.7818C83.0674 -15.7024 83.0687 -15.6118 83.0349 -15.5311C83.0018 -15.4511 82.9368 -15.3874 82.8556 -15.3561C82.7074 -15.2992 82.6274 -15.1574 82.5387 -15.0361C82.4237 -14.8836 82.4237 -14.6736 82.5387 -14.5211C82.6212 -14.4067 82.7093 -14.2561 82.8418 -14.2055C82.8505 -14.2017 82.8599 -14.1992 82.8693 -14.1949L82.8687 -14.1942C83.0299 -14.123 83.1037 -13.9349 83.033 -13.7736C82.9693 -13.6255 83.0105 -13.4736 83.033 -13.3217C83.0612 -13.133 83.2093 -12.9849 83.398 -12.9574C83.5493 -12.9336 83.7018 -12.8899 83.8493 -12.9555C83.9293 -12.9899 84.0193 -12.9905 84.0993 -12.9574C84.1799 -12.9236 84.243 -12.8592 84.2749 -12.7786C84.3324 -12.6305 84.4737 -12.5511 84.5949 -12.4611C84.7474 -12.3467 84.9574 -12.3467 85.1099 -12.4611C85.2243 -12.5449 85.3749 -12.6317 85.4256 -12.7649C85.4293 -12.7736 85.4318 -12.783 85.4362 -12.7924C85.5074 -12.953 85.6962 -13.0261 85.8574 -12.9555C86.0056 -12.8917 86.1574 -12.9336 86.3087 -12.9573C86.498 -12.9842 86.6462 -13.133 86.6737 -13.3217C86.6974 -13.4736 86.7412 -13.6255 86.6755 -13.7736C86.6405 -13.8536 86.6399 -13.9436 86.673 -14.0242C86.7068 -14.1048 86.7712 -14.168 86.8524 -14.1998C87.0005 -14.2573 87.0805 -14.3973 87.1699 -14.5198C87.2843 -14.6723 87.2843 -14.8823 87.1699 -15.0349C87.0868 -15.1492 86.9999 -15.2986 86.8662 -15.3505C86.8574 -15.3536 86.8481 -15.3567 86.8387 -15.3605C86.6774 -15.4317 86.6043 -15.6211 86.6756 -15.7824C86.7393 -15.9305 86.6974 -16.0824 86.6737 -16.2336V-16.2342C86.6456 -16.4224 86.4974 -16.5705 86.3087 -16.5986C86.2987 -16.5986 86.2887 -16.6011 86.2768 -16.603C86.1356 -16.6273 85.9937 -16.6598 85.8562 -16.5992V-16.5998C85.7762 -16.5648 85.6856 -16.5642 85.6049 -16.5973C85.5243 -16.6305 85.4612 -16.6955 85.4293 -16.7767C85.3724 -16.9248 85.2318 -17.0049 85.1093 -17.0942C84.9568 -17.2086 84.7468 -17.2086 84.5943 -17.0942C84.5106 -17.0336 84.3937 -16.9592 84.3349 -16.883L84.3355 -16.8817ZM84.8537 -16.1517C85.6137 -16.1517 86.2293 -15.5355 86.2293 -14.7761C86.2293 -14.0161 85.6137 -13.3999 84.8537 -13.3999C84.0937 -13.3999 83.4774 -14.0161 83.4774 -14.7761C83.4774 -15.5355 84.0937 -16.1517 84.8537 -16.1517ZM85.3743 -15.2974C84.9118 -15.7599 84.118 -15.4311 84.118 -14.7768C84.118 -14.1224 84.9118 -13.7936 85.3743 -14.2561C85.5124 -14.3936 85.5899 -14.5811 85.5899 -14.7768C85.5899 -14.9718 85.5124 -15.1593 85.3743 -15.2974ZM99.1593 -23.4211H106.359C106.429 -23.4217 106.496 -23.3992 106.551 -23.3567C106.554 -23.3548 106.556 -23.3536 106.559 -23.3523C106.568 -23.3436 106.577 -23.3348 106.587 -23.3254L110.699 -19.213C110.705 -19.2073 110.71 -19.2023 110.715 -19.1955C110.772 -19.1317 110.8 -19.0467 110.792 -18.9617V-9.58043C110.791 -8.91855 110.255 -8.3823 109.592 -8.38167H99.1592C98.4967 -8.3823 97.9599 -8.91855 97.9592 -9.58043V-22.2204C97.9599 -22.8829 98.4967 -23.4198 99.1592 -23.4204L99.1593 -23.4211ZM107.241 -19.3073H109.702L106.681 -22.3286V-19.8667C106.682 -19.5579 106.932 -19.3079 107.241 -19.3067V-19.3073ZM134.473 -19.8898L133.801 -20.2779C132.674 -18.3267 131.548 -16.3747 130.421 -14.4216L131.093 -14.0322C132.219 -15.9841 133.346 -17.9359 134.473 -19.8885V-19.8898ZM133.341 -16.656C133.128 -16.2879 132.916 -15.9192 132.704 -15.5504V-15.5523L131.494 -13.4572C131.492 -13.4516 131.489 -13.4466 131.486 -13.4416V-13.4422C131.464 -13.4035 131.434 -13.3697 131.398 -13.3435L129.842 -12.0479V-12.0485C129.706 -11.9372 129.507 -11.9554 129.394 -12.0891C129.334 -12.161 129.309 -12.2554 129.324 -12.3466L129.671 -14.3629H129.671C129.678 -14.4054 129.694 -14.4461 129.718 -14.4829L132.818 -19.8528L134.026 -21.9447C134.197 -22.2416 134.566 -22.3791 134.858 -22.2066L135.618 -21.7678C135.916 -21.5953 135.978 -21.1966 135.794 -20.8997L135.188 -19.8503L133.341 -16.656ZM133.341 -16.336V-9.76099C133.34 -9.11286 132.815 -8.58787 132.167 -8.58598H122.031C121.383 -8.58723 120.858 -9.11286 120.857 -9.76099V-22.0397C120.858 -22.6885 121.383 -23.2141 122.032 -23.2153H129.034C129.101 -23.2147 129.166 -23.1922 129.219 -23.1516C129.233 -23.1416 129.244 -23.131 129.256 -23.1191L132.594 -19.7817L131.918 -18.6098L129.581 -14.5623V-14.5629C129.547 -14.5091 129.525 -14.4491 129.514 -14.3866L129.169 -12.2086V-12.2092C129.182 -12.1267 129.218 -12.0492 129.272 -11.9848C129.441 -11.7817 129.742 -11.7536 129.946 -11.9211L131.499 -13.2136C131.552 -13.2523 131.596 -13.3011 131.627 -13.3567C131.987 -13.9798 132.347 -14.6036 132.708 -15.2272L132.718 -15.2447L132.722 -15.2529L132.728 -15.2616L132.738 -15.2791L132.74 -15.2829C132.941 -15.6329 133.143 -15.9829 133.345 -16.3335L133.341 -16.336ZM129.881 -19.2192H132.249L129.346 -22.1229V-19.7548C129.346 -19.4597 129.585 -19.221 129.88 -19.2204L129.881 -19.2192ZM135.251 -21.2386L134.579 -21.6267L134.577 -21.6211L134.119 -20.8292L134.791 -20.4411L135.239 -21.2161L135.251 -21.2386ZM130.222 -13.8012L130.1 -13.0893L130.655 -13.5512L130.222 -13.8012ZM147.933 -21.1736V-22.358C147.933 -22.9443 148.408 -23.4193 148.995 -23.4199H155.079C155.146 -23.4192 155.211 -23.3967 155.265 -23.3561C155.266 -23.3542 155.268 -23.353 155.27 -23.3511H155.272C155.282 -23.343 155.292 -23.3336 155.301 -23.3249L158.772 -19.8543H158.771L158.786 -19.8393L158.786 -19.8387C158.843 -19.7743 158.871 -19.6887 158.863 -19.6031V-11.6912C158.863 -11.105 158.388 -10.6293 157.801 -10.6287H156.818V-9.44435C156.817 -8.85809 156.342 -8.3831 155.756 -8.38248H146.95C146.364 -8.38311 145.889 -8.85811 145.888 -9.44435V-20.1106C145.888 -20.6975 146.364 -21.1731 146.95 -21.1737L147.933 -21.1736ZM156.82 -11.2687H157.803C158.036 -11.2693 158.225 -11.458 158.225 -11.6912H158.227V-19.3092H155.815C155.229 -19.3099 154.754 -19.7849 154.753 -20.3711V-22.781H148.993C148.76 -22.7804 148.572 -22.5917 148.571 -22.3585V-21.1748H153.031C153.099 -21.1736 153.165 -21.1517 153.22 -21.1104L153.224 -21.1067L153.227 -21.1048C153.237 -21.0967 153.246 -21.0886 153.255 -21.0798L156.729 -17.608C156.731 -17.6048 156.734 -17.6017 156.737 -17.5986C156.739 -17.5961 156.741 -17.5942 156.743 -17.5917H156.744C156.8 -17.5273 156.829 -17.4417 156.82 -17.3561V-11.2686L156.82 -11.2687ZM155.815 -19.95H157.772L155.392 -22.3293V-20.3719L155.393 -20.3712C155.394 -20.1381 155.583 -19.95 155.815 -19.9494L155.815 -19.95ZM153.771 -17.7024H155.727L153.348 -20.0818V-18.125L153.349 -18.1244C153.349 -17.8912 153.538 -17.7025 153.771 -17.7019L153.771 -17.7024ZM-62.421 14.952H-69.1754C-69.8148 14.9507 -70.3329 14.432 -70.3342 13.7926V1.73819C-70.3329 1.09882 -69.8148 0.580067 -69.1754 0.578819H-62.3072C-62.2379 0.578194 -62.1704 0.60069 -62.1154 0.643189C-62.1135 0.643189 -62.1116 0.646314 -62.1097 0.646939C-62.0997 0.655064 -62.0897 0.663188 -62.081 0.672564L-58.1597 4.59513C-58.1535 4.60075 -58.1478 4.607 -58.1422 4.61263V4.612C-58.086 4.67638 -58.0585 4.76075 -58.066 4.84575V9.58942C-57.336 10.2438 -56.9191 11.1788 -56.9203 12.16C-56.9203 13.0769 -57.2847 13.9568 -57.9335 14.6056C-58.5816 15.2543 -59.4616 15.6193 -60.3791 15.6193C-61.1134 15.62 -61.8297 15.3862 -62.4216 14.9518L-62.421 14.952ZM-61.4679 4.50253H-59.1567L-61.9868 1.67133V3.98381V3.98318C-61.9855 4.26944 -61.7543 4.50131 -61.468 4.50193L-61.4679 4.50253ZM-58.3853 10.1662C-58.9134 9.63746 -59.631 9.33995 -60.3784 9.33995C-61.1259 9.33995 -61.8434 9.63746 -62.3722 10.1662C-62.9003 10.695 -63.1972 11.4118 -63.1972 12.1593C-63.1972 12.9068 -62.9003 13.6243 -62.3722 14.1531C-62.291 14.2331 -62.2053 14.3081 -62.1159 14.3787L-62.1134 14.3806C-61.571 14.8043 -60.8928 15.015 -60.2053 14.9731C-59.5184 14.9312 -58.8709 14.6393 -58.384 14.1531C-57.8553 13.6243 -57.5584 12.9075 -57.5584 12.1593C-57.5584 11.4118 -57.8553 10.695 -58.384 10.1662L-58.3853 10.1662ZM-59.6972 11.0262C-59.6372 10.9662 -59.5559 10.9318 -59.4716 10.9318C-59.3866 10.9318 -59.3053 10.9662 -59.2453 11.0262C-59.1203 11.1512 -59.1203 11.3537 -59.2453 11.4787L-59.9253 12.1587L-59.2447 12.84H-59.2453C-59.1203 12.965 -59.1203 13.1675 -59.2453 13.2924C-59.3047 13.3524 -59.3859 13.3868 -59.4709 13.3868C-59.5559 13.3868 -59.6372 13.3524 -59.6966 13.2924L-60.3778 12.6112L-61.0591 13.2924C-61.1841 13.4174 -61.3866 13.4174 -61.5116 13.2924C-61.6366 13.1674 -61.6366 12.9649 -61.5116 12.84L-60.8303 12.1587L-61.5116 11.4781C-61.6366 11.3537 -61.6366 11.1506 -61.5116 11.0262C-61.3866 10.9012 -61.1841 10.9012 -61.0591 11.0262L-60.3778 11.7068L-59.6972 11.0262ZM-44.8447 0.578047H-37.6447C-37.5753 0.577422 -37.5078 0.599923 -37.4528 0.642422C-37.4503 0.644297 -37.4485 0.646172 -37.446 0.648047L-37.4453 0.647422C-37.436 0.655547 -37.4266 0.664297 -37.4172 0.673047L-33.3047 4.78553C-33.2991 4.79115 -33.2941 4.7974 -33.2885 4.80303C-33.2316 4.8674 -33.2041 4.95178 -33.2122 5.03677V14.4193C-33.2129 15.0812 -33.7491 15.6181 -34.4116 15.6193H-44.8479H-44.8473C-45.5098 15.6181 -46.0467 15.0812 -46.0473 14.4193V1.77933C-46.0461 1.11684 -45.5098 0.58058 -44.8473 0.579332L-44.8447 0.578047ZM-36.7634 4.69245H-34.3015L-37.3222 1.67117V4.13309C-37.3215 4.44184 -37.0715 4.69246 -36.7628 4.69371L-36.7634 4.69245ZM12.9246 13.5781V14.543C12.9239 15.1368 12.4427 15.618 11.8496 15.6193H2.89212C2.29838 15.618 1.81775 15.1368 1.81711 14.543V3.69488V3.6955C1.81711 3.10176 2.29836 2.61987 2.89212 2.61862H3.82212V1.65363C3.82274 1.05989 4.30399 0.579264 4.89775 0.578624H11.0853C11.1521 0.579873 11.2165 0.602375 11.2703 0.642999C11.2828 0.652374 11.2953 0.663624 11.3071 0.674874L14.8377 4.20368C14.8402 4.20743 14.8433 4.21055 14.8465 4.21368C14.8496 4.21618 14.8508 4.2193 14.8527 4.22055C14.9102 4.28493 14.9383 4.36992 14.9302 4.45556V12.5031C14.929 13.0968 14.4483 13.5774 13.8552 13.5781L12.9246 13.5781ZM3.82201 3.25933H2.89201C2.65201 3.25995 2.45764 3.45434 2.457 3.69496V14.5431V14.5425C2.457 14.7831 2.65201 14.9775 2.89201 14.9781H11.8494C12.0894 14.9775 12.2845 14.7831 12.2851 14.5425V13.5781H4.89756C4.30382 13.5775 3.82255 13.0969 3.82193 12.5031L3.82201 3.25933ZM11.8339 4.10995H13.8375L11.3988 1.67123V3.67491C11.3994 3.91491 11.5939 4.10931 11.8339 4.10995ZM-20.8446 0.578751H-13.6446C-13.5752 0.578126 -13.5077 0.600626 -13.4527 0.643126C-13.4502 0.644375 -13.4483 0.64625 -13.4458 0.648126C-13.4358 0.65625 -13.4258 0.664375 -13.4164 0.673751L-9.30459 4.78623C-9.29834 4.79186 -9.29272 4.79811 -9.28709 4.80374H-9.28772C-9.23209 4.86811 -9.20459 4.95248 -9.21209 5.03748V14.4194H-9.20959C-9.21084 15.0813 -9.74771 15.6182 -10.4096 15.6194H-20.8446C-21.5065 15.6182 -22.0434 15.0813 -22.0446 14.4194V1.7794C-22.0434 1.1169 -21.5065 0.580643 -20.8446 0.579395L-20.8446 0.578751ZM-12.7633 4.69315H-10.3014L-13.322 1.67123V4.13315C-13.3214 4.4419 -13.0714 4.69253 -12.7626 4.69378L-12.7633 4.69315ZM-14.0214 6.49507C-14.9077 5.60819 -16.3451 5.60819 -17.2313 6.49507C-17.657 6.92007 -17.8957 7.49757 -17.8957 8.09939C-17.8957 8.70126 -17.6569 9.27877 -17.2313 9.70371C-16.3444 10.5893 -14.9081 10.5893 -14.0214 9.70371C-13.5958 9.27872 -13.3564 8.70121 -13.3564 8.09939C-13.3564 7.49752 -13.5958 6.92002 -14.0214 6.49507ZM-16.1195 6.94632C-16.1195 6.76944 -15.9757 6.62632 -15.7995 6.62632C-15.7145 6.62632 -15.6332 6.66007 -15.5732 6.72007C-15.5132 6.78007 -15.4795 6.86132 -15.4795 6.94633V8.28695L-14.8157 8.67069H-14.8151C-14.742 8.71257 -14.6882 8.78257 -14.6664 8.86381C-14.6445 8.94569 -14.6557 9.03257 -14.6982 9.10569C-14.7864 9.25819 -14.9807 9.31068 -15.1339 9.22319L-15.932 8.76131V8.76194C-16.0457 8.71006 -16.1189 8.59631 -16.1189 8.47069L-16.1195 6.94632ZM131.237 4.69448H133.699L130.679 1.67128V4.1332C130.679 4.44195 130.929 4.69258 131.238 4.69382L131.237 4.69448ZM155.237 4.69448H157.699L154.679 1.67128V4.1332C154.679 4.44195 154.929 4.69258 155.238 4.69382L155.237 4.69448ZM75.1557 0.578799H82.3557C82.4251 0.578174 82.4926 0.600675 82.5476 0.643174C82.5501 0.644424 82.552 0.646299 82.5538 0.648174C82.5638 0.656299 82.5738 0.664423 82.5832 0.673799L86.6957 4.78628C86.7013 4.79191 86.7063 4.79815 86.712 4.80378C86.7688 4.86815 86.7963 4.95253 86.7882 5.03753V14.4194C86.787 15.0813 86.2507 15.6182 85.5882 15.6194H75.1557C74.4932 15.6182 73.9563 15.0813 73.9557 14.4194V1.77944C73.957 1.11695 74.4932 0.580692 75.1557 0.579444V0.578799ZM83.2383 4.6932H85.7002L82.6783 1.67128V4.1332C82.6783 4.44195 82.9289 4.69258 83.2377 4.69382L83.2383 4.6932ZM57.5807 14.9519H50.8263C50.1863 14.9507 49.6682 14.4319 49.6669 13.7925V1.73815C49.6682 1.09877 50.1863 0.580018 50.8263 0.57877H57.6932C57.7625 0.578145 57.83 0.600646 57.885 0.643145C57.8869 0.643145 57.8888 0.64627 57.8907 0.646895H57.8925C57.9025 0.65502 57.9125 0.663144 57.9219 0.67252L61.8432 4.59508C61.8488 4.6007 61.8551 4.60695 61.8594 4.61258V4.61195C61.9157 4.67633 61.9432 4.76071 61.9351 4.8457V9.58938C62.8219 10.3881 63.2344 11.5881 63.0257 12.7631C62.8176 13.9388 62.0176 14.9231 60.91 15.3687C59.8019 15.8137 58.5431 15.6562 57.5795 14.9519L57.5807 14.9519ZM58.5332 4.50248H60.845L58.0138 1.67128V3.98376V3.98314C58.0151 4.26939 58.2469 4.50126 58.5332 4.50189L58.5332 4.50248ZM61.6164 10.1662H61.6158C60.9039 9.45367 59.8657 9.17554 58.8932 9.43678C57.9201 9.69741 57.1601 10.4574 56.8994 11.4299C56.6388 12.403 56.9169 13.4405 57.6294 14.1531C57.7101 14.2331 57.7957 14.3081 57.8857 14.3787L57.8882 14.3806C58.6494 14.9756 59.6626 15.1394 60.5725 14.8137C61.4819 14.4887 62.1619 13.7206 62.3738 12.7774C62.5857 11.8349 62.3 10.8493 61.6169 10.1662L61.6164 10.1662ZM60.9064 11.8399H60.9058C61.0826 11.8399 61.2258 11.983 61.2258 12.1599C61.2258 12.3362 61.0826 12.4799 60.9058 12.4799H59.9426V13.443C59.9426 13.6193 59.7995 13.763 59.6226 13.763C59.4458 13.763 59.3026 13.6193 59.3026 13.443V12.4787H58.3395C58.1626 12.4787 58.0195 12.3355 58.0195 12.1587C58.0195 11.9818 58.1626 11.8387 58.3395 11.8387H59.3026V10.8787C59.3026 10.7018 59.4458 10.5587 59.6226 10.5587C59.7995 10.5587 59.9426 10.7018 59.9426 10.8787V11.8418L60.9064 11.8399ZM-65.4744 -16.2209C-65.3901 -16.2209 -65.3082 -16.1871 -65.2482 -16.1271C-65.1882 -16.0671 -65.1544 -15.9859 -65.1544 -15.9009C-65.1544 -15.8159 -65.1882 -15.7346 -65.2482 -15.6746C-65.3082 -15.6146 -65.39 -15.5809 -65.4744 -15.5809H-66.5601L-66.5607 -14.4971C-66.5607 -14.4121 -66.5944 -14.3309 -66.6544 -14.2709C-66.7144 -14.2109 -66.7957 -14.1771 -66.8807 -14.1771C-67.0569 -14.1771 -67.2007 -14.3202 -67.2007 -14.4971V-15.5821H-68.2863V-15.5815C-68.4632 -15.5815 -68.6063 -15.7252 -68.6063 -15.9015C-68.6063 -16.0784 -68.4632 -16.2215 -68.2863 -16.2215H-67.2007V-17.3065C-67.2007 -17.4834 -67.0569 -17.6265 -66.8807 -17.6265C-66.7957 -17.6265 -66.7144 -17.5934 -66.6544 -17.5334C-66.5944 -17.4727 -66.5607 -17.3915 -66.5607 -17.3065V-16.2215L-65.4744 -16.2209ZM96.8616 0.899122C96.8616 0.722242 97.0053 0.579122 97.1816 0.579122H101.444C101.62 0.579122 101.764 0.722246 101.764 0.899122C101.764 1.076 101.62 1.21912 101.444 1.21912H97.5016V5.1604C97.5016 5.33728 97.3585 5.4804 97.1816 5.4804C97.0053 5.4804 96.8616 5.33728 96.8616 5.1604V0.899122ZM107.32 1.21912C107.143 1.21912 107 1.076 107 0.899122C107 0.722242 107.143 0.579122 107.32 0.579122H111.582C111.667 0.579122 111.748 0.612872 111.808 0.672872C111.868 0.732872 111.902 0.81412 111.902 0.899127V5.16041C111.902 5.33729 111.758 5.48041 111.582 5.48041C111.405 5.48041 111.262 5.33728 111.262 5.16041V1.21913L107.32 1.21912ZM111.262 11.0385C111.262 10.8616 111.405 10.7185 111.582 10.7185C111.758 10.7185 111.902 10.8616 111.902 11.0385V15.2991C111.902 15.3841 111.868 15.4654 111.808 15.5254C111.748 15.5854 111.667 15.6191 111.582 15.6191H107.32C107.143 15.6191 107 15.476 107 15.2991C107 15.1222 107.143 14.9791 107.32 14.9791H111.262L111.262 11.0385ZM101.444 14.9785C101.62 14.9785 101.764 15.1216 101.764 15.2985C101.764 15.4754 101.62 15.6185 101.444 15.6185H97.1816C97.0053 15.6185 96.8616 15.4754 96.8616 15.2985V11.0385C96.8616 10.8616 97.0053 10.7185 97.1816 10.7185C97.3585 10.7185 97.5016 10.8616 97.5016 11.0385V14.9785H101.444ZM131.866 -39.3239H134.852C134.937 -39.3239 135.018 -39.2902 135.078 -39.2302C135.138 -39.1702 135.172 -39.0883 135.172 -39.0039V-35.302C135.172 -35.217 135.138 -35.1357 135.078 -35.0757C135.018 -35.0157 134.937 -34.982 134.852 -34.982H131.867V-34.152C131.866 -33.5339 131.365 -33.0332 130.747 -33.032H121.253C120.634 -33.032 120.133 -33.5332 120.133 -34.152V-45.652C120.134 -46.2701 120.635 -46.7707 121.253 -46.772H127.81C127.877 -46.7707 127.943 -46.7482 127.996 -46.7076L128.003 -46.702C128.013 -46.6939 128.023 -46.6857 128.032 -46.677L131.773 -42.9357C131.776 -42.9326 131.779 -42.9295 131.782 -42.9263C131.784 -42.9238 131.786 -42.9213 131.788 -42.9188C131.845 -42.8545 131.873 -42.7695 131.866 -42.6845L131.866 -39.3239ZM134.532 -38.6839H126.855V-35.6214H134.532V-38.6839ZM145.775 -43.962V-43.9614C145.775 -44.1383 145.918 -44.2814 146.095 -44.2814H147.087C147.81 -44.2795 148.397 -43.6932 148.399 -42.9695C148.397 -42.2458 147.81 -41.6601 147.087 -41.6576H146.095C145.918 -41.6576 145.775 -41.8008 145.775 -41.9776V-43.962ZM147.088 -43.642H146.417V-42.2945H147.088C147.678 -42.2945 147.992 -43.0151 147.563 -43.4432C147.438 -43.5695 147.267 -43.6414 147.088 -43.6414V-43.642ZM149.852 -44.2814C150.576 -44.2814 151.164 -43.6945 151.164 -42.9695C151.164 -42.2451 150.576 -41.6576 149.852 -41.6576C149.127 -41.6576 148.539 -42.2451 148.539 -42.9695C148.539 -43.6945 149.127 -44.2814 149.852 -44.2814ZM150.328 -43.4451C149.905 -43.8676 149.179 -43.5676 149.179 -42.9689C149.179 -42.3707 149.905 -42.0707 150.328 -42.4932L150.327 -42.4926C150.59 -42.7557 150.59 -43.1814 150.327 -43.4445L150.328 -43.4451ZM153.15 -42.4932V-42.4926C153.275 -42.6176 153.477 -42.6176 153.602 -42.4926C153.727 -42.3676 153.727 -42.1651 153.602 -42.0401C153.089 -41.5289 152.259 -41.5289 151.746 -42.0401C151.5 -42.2864 151.362 -42.6201 151.362 -42.9683C151.362 -43.3164 151.5 -43.6501 151.746 -43.8964C152.259 -44.4083 153.089 -44.4083 153.602 -43.8964C153.727 -43.7714 153.727 -43.5689 153.602 -43.4439C153.477 -43.3189 153.275 -43.3189 153.15 -43.4439C152.727 -43.8664 152 -43.5664 152 -42.9676C152 -42.3695 152.727 -42.0695 153.15 -42.492V-42.4932ZM127.415 -37.9588V-37.9582C127.415 -38.1351 127.559 -38.2782 127.735 -38.2782H128.541C129.124 -38.2776 129.61 -37.8326 129.663 -37.252C129.715 -37.8332 130.202 -38.2782 130.786 -38.2782C131.085 -38.2789 131.372 -38.1601 131.583 -37.9488C131.794 -37.7376 131.913 -37.4507 131.913 -37.152C131.913 -36.5295 131.409 -36.0245 130.786 -36.0245C130.202 -36.0245 129.715 -36.4707 129.663 -37.052C129.61 -36.4713 129.124 -36.0263 128.541 -36.0245H127.735C127.558 -36.0245 127.415 -36.1676 127.415 -36.3445L127.415 -37.9588ZM128.542 -37.6388L128.055 -37.6382V-36.6639L128.541 -36.6645C128.966 -36.6645 129.195 -37.1851 128.885 -37.4964C128.794 -37.5876 128.67 -37.6389 128.541 -37.6395L128.542 -37.6388ZM131.131 -37.4957C130.825 -37.802 130.299 -37.5845 130.299 -37.152C130.299 -36.7195 130.824 -36.5014 131.131 -36.8076V-36.807C131.222 -36.8982 131.274 -37.022 131.274 -37.1507C131.274 -37.2801 131.222 -37.4039 131.131 -37.4951V-37.4957ZM133.426 -36.807C133.55 -36.932 133.753 -36.932 133.878 -36.807C134.002 -36.6813 134.002 -36.4795 133.878 -36.3539C133.437 -35.9151 132.725 -35.9151 132.284 -36.3539C132.072 -36.5651 131.954 -36.852 131.954 -37.1507C131.954 -37.4501 132.072 -37.737 132.284 -37.9476C132.724 -38.3876 133.437 -38.3876 133.878 -37.9476C134.002 -37.8226 134.002 -37.6207 133.878 -37.4951C133.753 -37.3701 133.55 -37.3701 133.426 -37.4951C133.119 -37.8014 132.594 -37.5832 132.594 -37.1514C132.594 -36.7195 133.119 -36.5001 133.426 -36.807ZM-34.1745 -41.1895L-34.7126 -41.5008L-37.6851 -36.3513L-37.147 -36.0413C-36.1557 -37.7576 -35.1651 -39.4738 -34.1745 -41.1901V-41.1895ZM-36.1508 -36.1738V-34.162V-34.1626C-36.1508 -33.5439 -36.6521 -33.0426 -37.2708 -33.0426H-46.7476C-47.3664 -33.0426 -47.8676 -33.5439 -47.8676 -34.1626V-45.6407C-47.8676 -45.9376 -47.7495 -46.2226 -47.5395 -46.4326C-47.3295 -46.6426 -47.0445 -46.7607 -46.7476 -46.7607H-40.2083C-40.1389 -46.7613 -40.0714 -46.7388 -40.0164 -46.697L-40.0101 -46.6913C-39.9995 -46.6838 -39.9895 -46.6751 -39.9808 -46.6657L-36.2464 -42.9313L-36.2301 -42.9138V-42.9144C-36.1739 -42.8501 -36.1457 -42.765 -36.1539 -42.6801V-40.6063L-36.7914 -39.5026L-38.5295 -36.492C-38.5632 -36.4389 -38.5857 -36.3795 -38.5963 -36.317L-38.6363 -36.0832C-38.6913 -36.152 -38.7745 -36.192 -38.8626 -36.192H-45.1576C-45.3164 -36.192 -45.4458 -36.0626 -45.4458 -35.9039C-45.4458 -35.7445 -45.3164 -35.6157 -45.1576 -35.6157H-38.8626C-38.8082 -35.6157 -38.7551 -35.6314 -38.7095 -35.6601L-38.8982 -34.5645C-38.9263 -34.4045 -38.9088 -34.2657 -38.802 -34.1363C-38.632 -33.9332 -38.3307 -33.9057 -38.127 -34.0745L-36.7607 -35.2114L-36.7388 -35.2295C-36.7144 -35.2489 -36.6919 -35.2707 -36.6707 -35.2932L-36.6619 -35.3051L-36.1508 -36.1738ZM-36.1508 -40.285L-34.5565 -43.047C-34.3965 -43.3263 -34.0477 -43.4563 -33.769 -43.2932L-33.0921 -42.9032C-32.8164 -42.7432 -32.7508 -42.3795 -32.9133 -42.0982L-33.4521 -41.1639C-33.4558 -41.1582 -33.4583 -41.152 -33.4621 -41.1464V-41.147C-33.4652 -41.1414 -33.4683 -41.1357 -33.4721 -41.1307L-36.1009 -36.5782L-36.7884 -35.3982V-35.3976C-36.8028 -35.3807 -36.8196 -35.3651 -36.8371 -35.3514L-38.2253 -34.1957H-38.2246C-38.3603 -34.0845 -38.5603 -34.1032 -38.6728 -34.2376L-38.6759 -34.2414C-38.7103 -34.2845 -38.7334 -34.3351 -38.7428 -34.3901C-38.7484 -34.4389 -38.7459 -34.4882 -38.7359 -34.5364L-38.4346 -36.2888V-36.2882C-38.4271 -36.3313 -38.4115 -36.372 -38.3884 -36.4082L-36.1508 -40.285ZM-39.4065 -43.0238H-37.2422L-39.8854 -45.6681V-43.5031C-39.8854 -43.2381 -39.6704 -43.0231 -39.4054 -43.0231L-39.4065 -43.0238ZM59.0879 -38.8038C57.3167 -36.8401 53.9911 -36.8401 52.2217 -38.8063H52.221C52.1117 -38.9288 52.1123 -39.1144 52.2229 -39.2356C53.551 -40.695 55.7455 -41.0993 57.5504 -40.3256C58.1367 -40.0769 58.6617 -39.7044 59.0898 -39.2338C59.1998 -39.1113 59.1985 -38.925 59.0879 -38.8038ZM57.2997 -38.3019C57.7072 -38.475 58.081 -38.7181 58.4047 -39.02C57.8335 -39.5569 57.111 -39.8869 56.3548 -40.0119C56.6779 -39.785 56.8704 -39.4144 56.8704 -39.02C56.8698 -38.625 56.6773 -38.255 56.3542 -38.0275C56.6792 -38.0813 56.9967 -38.1738 57.2998 -38.3031L57.2997 -38.3019ZM54.9561 -40.0124C54.1992 -39.8862 53.4773 -39.5562 52.9061 -39.0206C53.4743 -38.4881 54.1961 -38.1568 54.9561 -38.0287C54.6329 -38.2556 54.4411 -38.6256 54.4404 -39.0206C54.4411 -39.4156 54.6329 -39.7856 54.9561 -40.0124ZM56.0617 -39.4256C55.7005 -39.7868 55.0811 -39.5299 55.0811 -39.0193C55.0811 -38.5087 55.7005 -38.2512 56.0617 -38.6137C56.2848 -38.8387 56.2848 -39.2012 56.0617 -39.4256ZM27.5369 -42.9843L26.8969 -42.3443L27.3056 -41.9349L27.9456 -42.5749L27.5369 -42.9843ZM27.7581 -41.4805L31.4001 -37.8386L32.0401 -38.4786L28.3981 -42.1218L27.7581 -41.4805ZM31.9969 -37.5293L32.5156 -37.3631L32.3494 -37.8818L31.9969 -37.5293ZM26.425 -42.7775L27.1031 -43.4556C27.3319 -43.6844 27.7088 -43.7169 27.9419 -43.4838L32.7206 -38.705L32.72 -38.7057C32.7625 -38.6638 32.7919 -38.6107 32.8056 -38.5532L33.3131 -36.9694H33.3125C33.3487 -36.8557 33.3187 -36.7307 33.2344 -36.6463C33.15 -36.5613 33.0256 -36.5307 32.9119 -36.5669L31.3275 -37.075L31.3269 -37.0744C31.2694 -37.0882 31.2163 -37.1175 31.175 -37.1594L27.0787 -41.2557L26.3968 -41.9382C26.1637 -42.1714 26.1962 -42.5482 26.4249 -42.777L26.425 -42.7775ZM5.71142 -40.8657H3.80134V-38.9562H5.71078L5.71142 -40.8657ZM5.06079 -40.44C5.19892 -40.5488 5.39892 -40.5257 5.5083 -40.3875C5.56142 -40.3213 5.58517 -40.2369 5.5758 -40.1532C5.5658 -40.0688 5.52267 -39.9919 5.45642 -39.94L4.74892 -39.3813L4.7483 -39.3807C4.61955 -39.28 4.43518 -39.2925 4.32142 -39.41L4.02454 -39.7163C3.90266 -39.8438 3.90641 -40.0457 4.03329 -40.1682C4.16016 -40.29 4.36204 -40.2857 4.48453 -40.1588L4.58078 -40.06L5.06079 -40.44ZM5.71142 -36.8626L3.80134 -36.8632V-34.9538H5.71078L5.71142 -36.8626ZM5.06079 -36.437V-36.4376C5.19892 -36.5463 5.39892 -36.5226 5.5083 -36.3851C5.61705 -36.2463 5.59392 -36.0463 5.45642 -35.937L4.74892 -35.3782H4.74829C4.61954 -35.277 4.43517 -35.2901 4.32141 -35.4076L4.02453 -35.7138C3.90328 -35.8407 3.90703 -36.0426 4.03328 -36.1651C4.16016 -36.287 4.36204 -36.2832 4.48453 -36.1563L4.58078 -36.0576L5.06079 -36.437ZM73.3872 -45.4738L72.8022 -44.8888L73.1678 -44.5219L73.7528 -45.1081L73.3872 -45.4738ZM73.6203 -44.0694L75.5066 -42.1832L77.0547 -40.6344L77.6403 -41.2194L75.0534 -43.8069L74.2053 -44.655L73.6203 -44.0694ZM77.6522 -40.3257L78.0903 -40.1851L77.9497 -40.6232L77.6522 -40.3257ZM72.3203 -45.31L72.9622 -45.9538C73.1859 -46.1775 73.5547 -46.21 73.7822 -45.9813L74.4297 -45.3338L74.956 -44.8081V-44.81C75.1691 -44.5988 75.3828 -44.3881 75.596 -44.1775V-44.1675L78.3196 -41.4438L78.5571 -40.8038L78.8809 -39.7945C78.9171 -39.6807 78.8865 -39.5563 78.8021 -39.472C78.7184 -39.3876 78.594 -39.357 78.4803 -39.3926L77.4196 -39.732L76.7796 -40.0032L75.5984 -41.1857L72.2947 -44.4894C72.0672 -44.7169 72.0978 -45.085 72.321 -45.3088L72.3203 -45.31ZM74.959 -45.0332V-45.9007H74.9584C74.9597 -46.5388 75.4765 -47.0557 76.1147 -47.0563H82.9572H82.9566C83.0241 -47.055 83.0891 -47.0325 83.1429 -46.9925C83.1454 -46.9907 83.1479 -46.9882 83.1497 -46.9857C83.1604 -46.9782 83.1697 -46.9694 83.1791 -46.9594L87.0828 -43.0557C87.089 -43.0507 87.0947 -43.0451 87.099 -43.0382C87.1559 -42.9745 87.1834 -42.8895 87.1753 -42.8045V-33.9008H87.1772V-33.9002C87.1759 -33.2627 86.6597 -32.7458 86.0215 -32.7445H76.114H76.1146C75.4765 -32.7458 74.9596 -33.2627 74.9584 -33.9002V-41.5989L76.6934 -39.8639L76.784 -39.8257L76.8159 -39.812L77.3684 -39.5776L77.424 -39.5595V-39.0195H79.2034V-40.8021H78.729L78.7128 -40.8546L78.5059 -41.4096L78.494 -41.4414L78.4621 -41.5277L78.4397 -41.5514C77.5059 -42.5296 76.539 -43.474 75.5777 -44.4215L75.5677 -44.4315L75.5652 -44.4334L74.9571 -45.0346L74.959 -45.0332ZM-62.3594 -32.3807H-69.56C-70.2225 -32.3819 -70.7588 -32.9188 -70.76 -33.5807V-46.2207C-70.7588 -46.8832 -70.2225 -47.4194 -69.56 -47.4207H-59.1237C-58.4618 -47.4194 -57.9249 -46.8832 -57.9237 -46.2207H-57.9256V-36.8394C-57.9174 -36.7544 -57.9456 -36.6694 -58.0018 -36.6056C-58.0068 -36.5994 -58.0124 -36.5938 -58.0181 -36.5881L-62.1299 -32.475V-32.4756C-62.1393 -32.4663 -62.1487 -32.4581 -62.1593 -32.45L-62.1612 -32.4481L-62.1668 -32.4444L-62.1662 -32.445C-62.2199 -32.4038 -62.2862 -32.3813 -62.3537 -32.3806L-62.3594 -32.3807ZM-59.0175 -36.4951H-61.4794L-61.48 -36.4957C-61.7887 -36.4938 -62.0387 -36.2438 -62.04 -35.9344V-33.4738L-59.0175 -36.4951ZM144.631 -45.5669H146.181V-46.2213H146.18C146.181 -46.8831 146.718 -47.42 147.38 -47.4213H157.816C158.479 -47.42 159.015 -46.8831 159.016 -46.2213V-36.8406C159.024 -36.755 158.997 -36.67 158.939 -36.6056C158.938 -36.6031 158.935 -36.6006 158.933 -36.5988C158.93 -36.5956 158.927 -36.5931 158.924 -36.59L154.811 -32.4769H154.811C154.802 -32.4681 154.793 -32.4594 154.783 -32.4513L154.781 -32.4494H154.78C154.779 -32.4488 154.777 -32.4475 154.776 -32.4463C154.722 -32.405 154.656 -32.3825 154.588 -32.3819H147.379C146.717 -32.3831 146.181 -32.9194 146.179 -33.5819V-40.3713H144.629C144.452 -40.3713 144.309 -40.5151 144.309 -40.6913V-45.2476C144.309 -45.4245 144.452 -45.5676 144.629 -45.5676L144.631 -45.5669ZM154.545 -44.9269H144.949V-41.0106H154.544L154.545 -44.9269ZM157.925 -36.4957H155.462C155.153 -36.4945 154.902 -36.2445 154.902 -35.9351V-33.4738L157.925 -36.4957ZM98.4434 -47.422H105.645C105.715 -47.4226 105.782 -47.4001 105.837 -47.3582C105.84 -47.357 105.842 -47.3551 105.843 -47.3532C105.854 -47.3451 105.863 -47.3363 105.873 -47.327L109.985 -43.2151L110.002 -43.197C110.058 -43.1326 110.086 -43.0482 110.078 -42.9632V-33.5826C110.077 -32.9207 109.54 -32.3838 108.878 -32.3826H98.4434C97.7815 -32.3838 97.2446 -32.9207 97.2434 -33.5826V-46.2226C97.2446 -46.8851 97.7815 -47.4214 98.4434 -47.4226V-47.422ZM106.526 -43.3076H108.988L105.965 -46.3288V-43.8669C105.967 -43.5582 106.217 -43.3082 106.526 -43.3076ZM83.7915 -43.1513H86.0878L83.2754 -45.9644V-43.6663C83.276 -43.3826 83.506 -43.1526 83.7904 -43.1513L83.7915 -43.1513ZM79.2096 -37.0012H77.4302V-35.2206H79.2096V-37.0012ZM2.44319 -47.4219H9.65007C9.71695 -47.4212 9.78257 -47.3987 9.83633 -47.3581C9.83883 -47.3562 9.84133 -47.3544 9.8432 -47.3519C9.85383 -47.3437 9.86383 -47.335 9.8732 -47.3256L13.985 -43.2138C13.9907 -43.2081 13.9963 -43.2019 14.0013 -43.1956C14.0582 -43.1313 14.0857 -43.0469 14.0775 -42.9613V-33.5813H14.0794C14.0782 -32.9194 13.5413 -32.3825 12.8794 -32.3813H2.4431C1.7806 -32.3825 1.24435 -32.9194 1.2431 -33.5813V-46.2213C1.24435 -46.8838 1.7806 -47.42 2.4431 -47.4213L2.44319 -47.4219ZM10.5245 -43.3075H12.9864L9.96511 -46.3287V-43.8668H9.96449C9.96574 -43.5587 10.2157 -43.3087 10.5245 -43.3075ZM26.4426 -47.4219H33.6501C33.717 -47.4212 33.7826 -47.3987 33.8357 -47.3581C33.8388 -47.3562 33.8413 -47.3544 33.8438 -47.3519C33.8538 -47.3437 33.8638 -47.335 33.8726 -47.3256L37.9851 -43.2138C37.9907 -43.2075 37.9957 -43.2019 38.0013 -43.1956H38.0019C38.0588 -43.1313 38.0863 -43.0469 38.0782 -42.9613V-33.5813C38.0769 -32.9194 37.5401 -32.3825 36.8782 -32.3813H26.4425C25.7806 -32.3825 25.2438 -32.9194 25.2425 -33.5813V-46.2213C25.2438 -46.8838 25.7806 -47.42 26.4425 -47.4213L26.4426 -47.4219ZM34.5251 -43.3075H36.987L33.9658 -46.3287V-43.8668H33.9651C33.9664 -43.5581 34.2164 -43.3081 34.5251 -43.3075ZM50.4432 -47.4219H57.6432C57.7126 -47.4219 57.7801 -47.3994 57.8357 -47.3581C57.8376 -47.3569 57.8401 -47.3556 57.8413 -47.3531C57.8513 -47.345 57.8607 -47.3362 57.8694 -47.3269L61.9819 -43.215C61.9875 -43.2088 61.9925 -43.2031 61.9982 -43.1969H61.9988C62.055 -43.1325 62.0832 -43.0481 62.075 -42.9632V-33.5825C62.0744 -32.9206 61.5382 -32.3838 60.8757 -32.3825H50.4432C49.7813 -32.3838 49.2444 -32.9206 49.2432 -33.5825V-46.2225C49.2444 -46.885 49.7813 -47.4213 50.4432 -47.4225L50.4432 -47.4219ZM58.5245 -43.3075H60.9864L57.9651 -46.3287V-43.8668C57.9664 -43.5587 58.2163 -43.3087 58.5245 -43.3075ZM-21.5571 -47.4219H-14.3571C-14.2878 -47.4219 -14.2203 -47.3994 -14.1646 -47.3581C-14.1628 -47.3569 -14.1603 -47.3556 -14.159 -47.3531C-14.149 -47.345 -14.1396 -47.3362 -14.1309 -47.3269L-10.0184 -43.215L-10.0022 -43.1969H-10.0015C-9.94528 -43.1325 -9.91715 -43.0481 -9.92528 -42.9632V-33.5825C-9.9259 -32.9206 -10.4622 -32.3838 -11.1247 -32.3825H-21.5571C-22.219 -32.3838 -22.7559 -32.9206 -22.7571 -33.5825V-46.2225C-22.7559 -46.885 -22.219 -47.4213 -21.5571 -47.4225L-21.5571 -47.4219ZM-13.4758 -43.3075H-11.0139L-14.0352 -46.3287V-43.8668C-14.034 -43.5587 -13.784 -43.3087 -13.4758 -43.3075ZM-14.7346 -41.5055C-15.1602 -41.9312 -15.7371 -42.1705 -16.3389 -42.1705C-16.9408 -42.1705 -17.5183 -41.9312 -17.9439 -41.5055C-18.8045 -40.6455 -18.8333 -39.2587 -18.0076 -38.3636C-17.8776 -38.908 -17.3914 -39.2924 -16.832 -39.2936H-15.847C-15.287 -39.2924 -14.8008 -38.908 -14.6701 -38.3636C-13.8458 -39.2586 -13.874 -40.6449 -14.7346 -41.5055ZM-17.4015 -37.895C-16.7371 -37.5444 -15.9427 -37.5444 -15.2789 -37.895C-15.2789 -38.1225 -15.262 -38.3019 -15.447 -38.4875C-15.5527 -38.5937 -15.697 -38.6537 -15.8477 -38.6537H-16.8314C-17.1452 -38.6531 -17.3995 -38.4 -17.4014 -38.0862L-17.4015 -37.895ZM-16.3402 -41.5838C-15.7165 -41.5838 -15.2109 -41.0781 -15.2109 -40.4544C-15.2109 -40.155 -15.3296 -39.8681 -15.5415 -39.6563C-15.7534 -39.4444 -16.0409 -39.325 -16.3402 -39.3257C-16.964 -39.3257 -17.4696 -39.8313 -17.4696 -40.4544C-17.469 -41.0781 -16.964 -41.5832 -16.3402 -41.5838ZM-15.9946 -40.8C-16.3009 -41.1075 -16.829 -40.8888 -16.829 -40.4544C-16.829 -40.02 -16.3008 -39.8013 -15.9946 -40.1088V-40.1094C-15.9027 -40.2006 -15.8515 -40.325 -15.8515 -40.4544C-15.8515 -40.5844 -15.9027 -40.7088 -15.9946 -40.8ZM-33.4778 -42.3894L-34.0159 -42.7007L-34.3897 -42.0532L-33.8515 -41.7425L-33.4778 -42.3894ZM-37.8804 -35.7294L-37.9647 -35.24L-37.581 -35.56L-37.8804 -35.7294ZM128.616 -43.0294H130.786L128.136 -45.6793V-43.5099C128.137 -43.2449 128.351 -43.0311 128.616 -43.0299V-43.0294ZM-37.8804 -71.4214H-37.881C-37.8116 -71.422 -37.7435 -71.3995 -37.6885 -71.357C-37.6866 -71.3552 -37.6847 -71.3533 -37.6822 -71.352C-37.6722 -71.3439 -37.6622 -71.3358 -37.6529 -71.3264L-33.541 -67.2139L-33.5417 -67.2133C-33.5354 -67.2083 -33.5304 -67.2027 -33.5254 -67.1964C-33.4685 -67.1321 -33.441 -67.0477 -33.4492 -66.9627V-57.5814H-33.4473C-33.4479 -56.9189 -33.9848 -56.382 -34.6473 -56.3814H-45.0836C-45.7455 -56.382 -46.2823 -56.9189 -46.2836 -57.5814V-70.2214C-46.2823 -70.8833 -45.7455 -71.4202 -45.0836 -71.4214L-37.8804 -71.4214ZM-37.0004 -67.307H-34.5384L-37.5597 -70.3283V-67.8677L-37.5603 -67.867C-37.5597 -67.5583 -37.3097 -67.3077 -37.001 -67.3064L-37.0004 -67.307ZM-39.6567 -62.6158V-62.6152C-39.6567 -62.5302 -39.6904 -62.4489 -39.7504 -62.3889C-39.8104 -62.3289 -39.8917 -62.2952 -39.9767 -62.2952C-40.1536 -62.2952 -40.2967 -62.4383 -40.2967 -62.6152V-62.6377C-40.2967 -62.8146 -40.1536 -62.9577 -39.9767 -62.9577C-39.8917 -62.9577 -39.8104 -62.9239 -39.7504 -62.8639C-39.6904 -62.8039 -39.6567 -62.7227 -39.6567 -62.6377V-62.6158ZM-40.0404 -64.6121L-40.0411 -64.6115C-40.0411 -64.5271 -40.0742 -64.4453 -40.1342 -64.3853C-40.1948 -64.3253 -40.2761 -64.2915 -40.3611 -64.2915C-40.5373 -64.2915 -40.6811 -64.4353 -40.6811 -64.6115C-40.6811 -65.3434 -40.0479 -65.6678 -39.5379 -65.429C-39.2648 -65.3009 -39.0492 -65.0228 -39.0492 -64.6115C-39.0492 -63.954 -39.6379 -63.9503 -39.6379 -63.4821L-39.6373 -63.4828C-39.6373 -63.3978 -39.6711 -63.3165 -39.7311 -63.2559C-39.7911 -63.1959 -39.8729 -63.1627 -39.9573 -63.1627C-40.1342 -63.1627 -40.2773 -63.3059 -40.2773 -63.4827C-40.2773 -64.2509 -39.6892 -64.3684 -39.6892 -64.6121C-39.6892 -64.8215 -39.8342 -64.9065 -39.9411 -64.8552C-39.9973 -64.829 -40.0411 -64.7509 -40.0411 -64.6121L-40.0404 -64.6121ZM-38.2604 -65.5078C-38.686 -65.9334 -39.2629 -66.1728 -39.8647 -66.1728C-40.4666 -66.1728 -41.0441 -65.9334 -41.4697 -65.5078C-42.3547 -64.6209 -42.3547 -63.1846 -41.4697 -62.2978C-40.5834 -61.4116 -39.1465 -61.4116 -38.2603 -62.2978C-37.3734 -63.1841 -37.3735 -64.6215 -38.2604 -65.5078ZM56.4554 -65.0684V-65.0678C56.4554 -64.9828 56.4217 -64.9015 56.3617 -64.8415C56.3017 -64.7815 56.2198 -64.7478 56.1354 -64.7478C55.9585 -64.7478 55.8154 -64.8909 55.8154 -65.0678V-65.0903C55.8154 -65.2671 55.9585 -65.4103 56.1354 -65.4103C56.2198 -65.4103 56.3017 -65.3765 56.3617 -65.3165C56.4217 -65.2565 56.4554 -65.1753 56.4554 -65.0903V-65.0684ZM56.4554 -62.7271V-62.7265C56.4554 -62.6415 56.4217 -62.5602 56.3617 -62.5002C56.3017 -62.4402 56.2198 -62.4065 56.1354 -62.4065C55.9585 -62.4065 55.8154 -62.5496 55.8154 -62.7265V-64.2502C55.8154 -64.4271 55.9585 -64.5702 56.1354 -64.5702C56.2198 -64.5702 56.3017 -64.5365 56.3617 -64.4765C56.4217 -64.4165 56.4554 -64.3352 56.4554 -64.2502V-62.7271ZM57.7636 -65.5302C57.3317 -65.9614 56.7461 -66.2033 56.136 -66.2033C55.526 -66.2033 54.9404 -65.9614 54.5085 -65.5302C54.0766 -65.0989 53.8341 -64.5133 53.8341 -63.9033C53.8341 -63.2927 54.0766 -62.707 54.5085 -62.2758C54.9404 -61.8439 55.5254 -61.6014 56.136 -61.6014C56.746 -61.6014 57.3317 -61.8439 57.7636 -62.2758C58.1948 -62.707 58.4373 -63.2926 58.4373 -63.9033C58.4373 -64.5133 58.1948 -65.0989 57.7636 -65.5302ZM58.1192 -71.4233L58.1186 -71.4226C58.1879 -71.4239 58.2561 -71.4014 58.3111 -71.3589L58.3173 -71.3533C58.3273 -71.3451 58.3373 -71.337 58.3467 -71.3276L62.4592 -67.2152C62.4648 -67.2095 62.4698 -67.2033 62.4754 -67.1977C62.5317 -67.1339 62.5598 -67.0489 62.5517 -66.9639V-57.5826C62.5504 -56.9208 62.0135 -56.3839 61.3517 -56.3826H50.9173C50.2548 -56.3839 49.7185 -56.9208 49.7173 -57.5826V-70.2226C49.7185 -70.8851 50.2548 -71.4214 50.9173 -71.4226L58.1192 -71.4233ZM59.0004 -67.3089H61.4611L58.4398 -70.3302V-67.8695L58.4392 -67.8689C58.4398 -67.5595 58.6904 -67.3089 58.9998 -67.3083L59.0004 -67.3089ZM154.908 -65.0252C155.345 -65.0258 155.765 -64.8521 156.075 -64.5427C156.384 -64.2327 156.558 -63.8133 156.558 -63.3758C156.559 -62.9133 156.365 -62.4714 156.023 -62.1596V-59.494C156.023 -59.3677 155.948 -59.2533 155.832 -59.2021C155.716 -59.1515 155.581 -59.174 155.488 -59.2596L154.908 -59.7933L154.343 -59.274V-59.2733C154.252 -59.1796 154.114 -59.1496 153.993 -59.1983C153.872 -59.2471 153.793 -59.364 153.792 -59.494V-62.1596C153.451 -62.4714 153.257 -62.9133 153.258 -63.3758C153.258 -64.2864 153.996 -65.0252 154.908 -65.0252ZM155.384 -61.7951C155.23 -61.7489 155.069 -61.7257 154.908 -61.7257C154.746 -61.7257 154.586 -61.7489 154.431 -61.7951V-60.2251L154.692 -60.4645C154.814 -60.5764 155.001 -60.5764 155.124 -60.4645C155.212 -60.3864 155.298 -60.3045 155.384 -60.2251L155.384 -61.7951ZM155.621 -64.0895C155.433 -64.2789 155.176 -64.3851 154.908 -64.3851C154.64 -64.3851 154.383 -64.2789 154.194 -64.0895C154.005 -63.9001 153.898 -63.6433 153.898 -63.3758C153.898 -63.1076 154.005 -62.8508 154.194 -62.6614C154.228 -62.6276 154.265 -62.5958 154.303 -62.5676L154.305 -62.5658C154.663 -62.2995 155.153 -62.2995 155.511 -62.5658L155.514 -62.5676C155.552 -62.5964 155.588 -62.6276 155.621 -62.6614C155.811 -62.8508 155.918 -63.1077 155.918 -63.3758C155.918 -63.6433 155.811 -63.9001 155.621 -64.0895ZM154.124 -71.4194C154.192 -71.4188 154.258 -71.3963 154.312 -71.3557L154.318 -71.3519H154.317C154.328 -71.3438 154.337 -71.3351 154.346 -71.3263L158.459 -67.2138L158.475 -67.1963C158.532 -67.1319 158.559 -67.0476 158.551 -66.9626V-57.5813C158.55 -56.9188 158.014 -56.3819 157.351 -56.3813H146.917C146.255 -56.3819 145.719 -56.9188 145.718 -57.5813V-70.2213C145.719 -70.8832 146.255 -71.4201 146.917 -71.4213H154.124L154.124 -71.4194ZM155 -67.305H157.461L154.44 -70.3263V-67.8657H154.44C154.44 -67.5563 154.69 -67.3057 155 -67.305ZM130.12 -71.4194C130.189 -71.4201 130.256 -71.3976 130.311 -71.3557L130.318 -71.3501C130.328 -71.3419 130.338 -71.3338 130.347 -71.3244L134.459 -67.2119L134.476 -67.1944C134.533 -67.1307 134.56 -67.0457 134.552 -66.9607V-57.5794C134.551 -56.9169 134.014 -56.3807 133.352 -56.3794H122.918C122.256 -56.3807 121.719 -56.9169 121.718 -57.5794V-70.2194C121.719 -70.8819 122.256 -71.4182 122.918 -71.4194L130.12 -71.4194ZM131.001 -67.305H133.461L130.44 -70.3263V-67.8657H130.439C130.441 -67.5563 130.691 -67.3057 131 -67.305L131.001 -67.305ZM106.121 -71.4194H106.12C106.19 -71.4201 106.258 -71.3976 106.313 -71.3557C106.315 -71.3538 106.316 -71.3519 106.319 -71.3501C106.329 -71.3419 106.339 -71.3338 106.348 -71.3244L110.46 -67.2119H110.459C110.466 -67.2063 110.471 -67.2007 110.476 -67.1944C110.533 -67.1307 110.56 -67.0457 110.552 -66.9607V-57.5794H110.554C110.553 -56.9169 110.016 -56.3807 109.354 -56.3794H98.9188C98.2569 -56.3807 97.7201 -56.9169 97.7188 -57.5794V-70.2194C97.7201 -70.8819 98.2569 -71.4182 98.9188 -71.4194L106.121 -71.4194ZM107.001 -67.305H109.463L106.441 -70.3263V-67.8657H106.441C106.441 -67.5569 106.691 -67.3063 107 -67.305L107.001 -67.305ZM9.06316 -64.5469C9.18753 -64.6444 9.36753 -64.6238 9.46566 -64.5001C9.56378 -64.3757 9.54254 -64.1957 9.41878 -64.0976L7.95566 -62.9438V-62.9432C7.84066 -62.8513 7.67379 -62.8626 7.57192 -62.9695L6.95817 -63.6032C6.8488 -63.7176 6.85255 -63.8995 6.9663 -64.0095C7.08067 -64.1182 7.26193 -64.1145 7.37193 -64.0007L7.80443 -63.5526L9.06316 -64.5469ZM9.84879 -65.6132H6.42511V-62.1895H9.84879V-65.6132ZM10.1188 -71.4207V-71.4214C10.1882 -71.422 10.2563 -71.3995 10.3113 -71.357C10.3132 -71.3557 10.3157 -71.3539 10.3175 -71.352C10.3275 -71.3439 10.3363 -71.3357 10.3457 -71.3264L14.4581 -67.2139L14.4744 -67.1964C14.5313 -67.132 14.5588 -67.0476 14.5506 -66.9626V-57.5813C14.55 -56.9189 14.0131 -56.382 13.3506 -56.3813H2.91752C2.25565 -56.382 1.71939 -56.9189 1.71877 -57.5813V-70.2213C1.71939 -70.8832 2.25565 -71.4201 2.91752 -71.4213L10.1188 -71.4207ZM11 -67.3063H13.462L10.4407 -70.3276V-67.867H10.4401C10.4407 -67.5582 10.6907 -67.3076 11 -67.3063ZM80.44 -65.3713L80.7075 -64.5419H81.5819C81.8894 -64.5419 82.0176 -64.1457 81.7688 -63.9657L81.0613 -63.4538L81.3325 -62.6219V-62.6225C81.375 -62.4869 81.3232 -62.3394 81.205 -62.2607C81.0875 -62.1813 80.9313 -62.19 80.8219 -62.2807L80.135 -62.7813L79.4288 -62.2657V-62.2663C79.2863 -62.1638 79.0882 -62.195 78.9844 -62.3363C78.9232 -62.4194 78.9063 -62.5269 78.9388 -62.6244L79.21 -63.4563L78.5025 -63.9682C78.3894 -64.0525 78.345 -64.2019 78.3932 -64.3344C78.4419 -64.4675 78.5719 -64.5525 78.7132 -64.5444H79.5638L79.8325 -65.3763C79.9288 -65.6719 80.3488 -65.6682 80.4407 -65.3738L80.44 -65.3713ZM81.7625 -65.5288C81.3307 -65.9594 80.7457 -66.2019 80.135 -66.2019C79.525 -66.2019 78.94 -65.9594 78.5081 -65.5288C78.0763 -65.0969 77.8338 -64.5119 77.8338 -63.9013C77.8338 -63.2906 78.0763 -62.7056 78.5081 -62.2737C78.9394 -61.8425 79.525 -61.5994 80.135 -61.5994C80.7456 -61.5994 81.3313 -61.8425 81.7625 -62.2737C82.1944 -62.7056 82.4369 -63.2906 82.4369 -63.9013C82.4369 -64.5119 82.1944 -65.0969 81.7625 -65.5288ZM82.1182 -71.4206V-71.4213C82.1875 -71.4219 82.2551 -71.3994 82.31 -71.3569C82.3125 -71.3556 82.3144 -71.3538 82.3163 -71.3519C82.3263 -71.3438 82.3351 -71.3356 82.3444 -71.3263L86.4569 -67.2138C86.4625 -67.2082 86.4675 -67.2019 86.4732 -67.1963H86.4738C86.53 -67.1319 86.5575 -67.0475 86.55 -66.9625V-57.5813C86.5488 -56.9188 86.0119 -56.3819 85.35 -56.3813H74.9175C74.2557 -56.3819 73.7194 -56.9188 73.7188 -57.5813V-70.2213C73.7194 -70.8831 74.2557 -71.42 74.9175 -71.4213L82.1182 -71.4206ZM82.9994 -67.3062H85.4613L82.4401 -70.3275V-67.8669H82.4394C82.4394 -67.5581 82.6901 -67.3075 82.9988 -67.3063L82.9994 -67.3062ZM-64.5062 -63.8643L-64.5068 -63.8649C-64.6318 -63.7406 -64.8337 -63.7406 -64.9593 -63.8649C-65.0193 -63.9249 -65.0531 -64.0062 -65.0531 -64.0912C-65.0531 -64.1762 -65.0193 -64.2575 -64.9593 -64.3175L-64.0674 -65.2075C-63.9393 -65.3118 -63.7537 -65.3012 -63.6374 -65.1837L-62.7712 -64.3175C-62.7112 -64.2575 -62.6774 -64.1762 -62.6774 -64.0912C-62.6774 -64.0062 -62.7112 -63.9249 -62.7712 -63.8649C-62.8962 -63.7399 -63.0987 -63.7399 -63.2237 -63.8649L-63.5437 -64.1874V-62.8431C-63.5437 -62.7581 -63.5774 -62.6768 -63.6374 -62.6168C-63.6974 -62.5568 -63.7793 -62.5231 -63.8637 -62.5231C-64.0406 -62.5231 -64.1837 -62.6662 -64.1837 -62.8431V-64.1868L-64.5062 -63.8643ZM-62.258 -65.505C-62.6837 -65.9306 -63.2611 -66.17 -63.863 -66.17C-64.4648 -66.17 -65.0417 -65.9306 -65.4673 -65.505C-66.3529 -64.6181 -66.3529 -63.1818 -65.4673 -62.295C-64.5811 -61.4088 -63.1441 -61.4088 -62.2579 -62.295C-61.3716 -63.1813 -61.3716 -64.6187 -62.2579 -65.505H-62.258ZM-61.8799 -71.42V-71.4206C-61.8105 -71.4212 -61.743 -71.3987 -61.688 -71.3562C-61.6855 -71.355 -61.6837 -71.3531 -61.6818 -71.3512C-61.6718 -71.3431 -61.663 -71.335 -61.6537 -71.3256L-57.5412 -67.2131C-57.5355 -67.2075 -57.5305 -67.2013 -57.5249 -67.1956H-57.5243C-57.468 -67.1313 -57.4399 -67.0469 -57.448 -66.9619V-57.5806C-57.4487 -56.9181 -57.9856 -56.3812 -58.6474 -56.3806H-69.0842C-69.7467 -56.3812 -70.283 -56.9181 -70.2836 -57.5806V-70.2206C-70.283 -70.8825 -69.7467 -71.4194 -69.0842 -71.4206L-61.8799 -71.42ZM-60.9987 -67.3056H-58.5367L-61.558 -70.3269V-67.8662H-61.5586C-61.558 -67.5575 -61.308 -67.3068 -60.9987 -67.3056ZM34.1214 -71.42V-71.4206C34.1907 -71.4212 34.2582 -71.3987 34.3132 -71.3562C34.3151 -71.3544 34.3176 -71.3525 34.3195 -71.3512C34.3295 -71.3431 34.3395 -71.335 34.3489 -71.3256L38.4607 -67.2131V-67.2125C38.4663 -67.2075 38.4719 -67.2019 38.4769 -67.1956C38.5332 -67.1313 38.5613 -67.0469 38.5532 -66.9619V-57.5806H38.5551C38.5538 -56.9181 38.0169 -56.3812 37.3551 -56.3806H26.9183C26.2564 -56.3812 25.7195 -56.9181 25.7183 -57.5806V-70.2206C25.7195 -70.8825 26.2564 -71.4194 26.9183 -71.4206L34.1214 -71.42ZM35.0014 -67.3056H37.4633L34.442 -70.3269V-67.8662C34.4426 -67.5575 34.6926 -67.3068 35.0014 -67.3056ZM-12.9986 -67.3056H-10.538L-13.5593 -70.3269V-67.8662C-13.5587 -67.5575 -13.308 -67.3068 -12.9986 -67.3056ZM32.9726 -38.5968L33.4775 -37.018L33.4782 -37.0187C33.5338 -36.848 33.4888 -36.6605 33.3619 -36.533C33.2357 -36.4049 33.0482 -36.3587 32.8769 -36.4143L31.2969 -36.9218V-36.9212C31.2126 -36.9424 31.1357 -36.9855 31.0744 -37.0468C29.4826 -38.6399 27.8901 -40.2324 26.297 -41.8242C26.0001 -42.1217 26.037 -42.6011 26.3251 -42.8899L27.0039 -43.568C27.292 -43.8561 27.772 -43.893 28.0695 -43.5961L32.8469 -38.818C32.9082 -38.7562 32.9519 -38.6799 32.9732 -38.5955L32.9726 -38.5968ZM59.2206 -38.6962C57.3842 -36.6637 53.9494 -36.6618 52.1169 -38.6993C51.9525 -38.883 51.9538 -39.1612 52.1194 -39.343C52.7987 -40.0887 53.705 -40.5787 54.6906 -40.7749H54.6912C55.6781 -40.9705 56.7011 -40.8655 57.6275 -40.473C58.235 -40.2155 58.7794 -39.8293 59.2232 -39.3405C59.3875 -39.1574 59.3875 -38.8799 59.2232 -38.6968L59.2206 -38.6962ZM156.185 -62.093V-59.428V-59.4286C156.181 -59.3086 156.12 -59.198 156.022 -59.1299C155.851 -58.998 155.584 -58.9699 155.395 -59.1318L155.381 -59.1443L154.909 -59.5786L154.455 -59.1593C154.143 -58.8574 153.633 -59.0705 153.633 -59.4968V-62.0931C153.291 -62.4331 153.099 -62.895 153.1 -63.3768C153.1 -64.3762 153.91 -65.1863 154.909 -65.1863C155.389 -65.1869 155.85 -64.9963 156.189 -64.6569C156.529 -64.3175 156.719 -63.8569 156.719 -63.3769C156.72 -62.895 156.527 -62.4331 156.185 -62.0931L156.185 -62.093ZM-66.4547 -60.188V-60.1886C-66.6134 -60.1886 -66.7422 -60.0593 -66.7422 -59.9005C-66.7422 -59.7411 -66.6134 -59.6124 -66.4547 -59.6124H-61.2747C-61.1159 -59.6124 -60.9871 -59.7411 -60.9871 -59.9005C-60.9871 -60.0593 -61.1159 -60.1886 -61.2747 -60.1886L-66.4547 -60.188ZM-66.7422 -58.6843C-66.7422 -58.5255 -66.6134 -58.3961 -66.4546 -58.3961H-61.2746C-61.1159 -58.3961 -60.9871 -58.5255 -60.9871 -58.6843C-60.9871 -58.8436 -61.1159 -58.9724 -61.2746 -58.9724H-66.4546C-66.6134 -58.9724 -66.7422 -58.8436 -66.7422 -58.6843ZM77.2579 -59.9005C77.2579 -59.7412 77.3866 -59.6124 77.5454 -59.6124H82.7254C82.8841 -59.6124 83.0129 -59.7411 83.0129 -59.9005C83.0129 -60.0593 82.8841 -60.1887 82.7254 -60.1887H77.5454C77.3866 -60.1887 77.2579 -60.0593 77.2579 -59.9005ZM77.2579 -58.6843C77.2579 -58.5255 77.3866 -58.3961 77.5454 -58.3961H82.7254C82.8841 -58.3961 83.0129 -58.5255 83.0129 -58.6843C83.0129 -58.8436 82.8841 -58.9724 82.7254 -58.9724H77.5454C77.3866 -58.9724 77.2579 -58.8436 77.2579 -58.6843ZM148.38 -59.498C148.38 -59.3386 148.51 -59.2099 148.669 -59.2099H151.377C151.536 -59.2099 151.665 -59.3386 151.665 -59.498C151.665 -59.6568 151.536 -59.7855 151.377 -59.7855H148.67C148.51 -59.7855 148.382 -59.6568 148.382 -59.498H148.38ZM148.669 -62.1662V-62.1656C148.51 -62.1656 148.38 -62.0368 148.38 -61.8774C148.38 -61.7187 148.51 -61.5899 148.669 -61.5899H151.377C151.536 -61.5899 151.665 -61.7187 151.665 -61.8774C151.665 -62.0368 151.536 -62.1656 151.377 -62.1656L148.669 -62.1662ZM148.669 -64.5455V-64.5449C148.51 -64.5449 148.38 -64.4162 148.38 -64.2568C148.38 -64.098 148.51 -63.9687 148.669 -63.9687H151.377C151.536 -63.9687 151.665 -64.098 151.665 -64.2568C151.665 -64.4162 151.536 -64.5449 151.377 -64.5449L148.669 -64.5455ZM148.669 -66.9249V-66.9243C148.51 -66.9243 148.38 -66.7955 148.38 -66.6361C148.38 -66.4774 148.51 -66.3486 148.669 -66.3486H152.31C152.469 -66.3486 152.597 -66.4774 152.597 -66.6361C152.597 -66.7955 152.469 -66.9243 152.31 -66.9243L148.669 -66.9249ZM148.93 5.07511V5.07573C148.772 5.07573 148.643 5.20449 148.643 5.36386C148.643 5.52261 148.772 5.65137 148.93 5.65137H152.572C152.73 5.65137 152.86 5.52262 152.86 5.36386C152.86 5.20449 152.73 5.07573 152.572 5.07573L148.93 5.07511ZM148.93 7.45447V7.45509C148.772 7.45509 148.643 7.58385 148.643 7.74322C148.643 7.90197 148.772 8.03135 148.93 8.03135H155.862C156.022 8.03135 156.15 7.90198 156.15 7.74322C156.15 7.58385 156.022 7.45509 155.862 7.45509L148.93 7.45447ZM156.265 10.1745L154.399 11.9388L153.674 11.1894V11.19C153.561 11.09 153.39 11.0944 153.282 11.1994C153.174 11.3038 153.165 11.4744 153.262 11.59L154.181 12.5425C154.29 12.6582 154.472 12.6638 154.587 12.5557L156.66 10.5963C156.762 10.485 156.76 10.3144 156.657 10.2051C156.554 10.0951 156.384 10.0838 156.266 10.1782L156.265 10.1745ZM148.642 10.122C148.642 10.2807 148.771 10.4095 148.93 10.4095H151.639C151.797 10.4095 151.927 10.2807 151.927 10.122C151.927 9.96259 151.797 9.83384 151.639 9.83384H148.93C148.771 9.83384 148.642 9.96259 148.642 10.122ZM148.642 12.5013C148.642 12.6601 148.771 12.7895 148.93 12.7895H151.639C151.797 12.7895 151.927 12.6601 151.927 12.5013C151.927 12.342 151.797 12.2132 151.639 12.2132H148.93C148.771 12.2132 148.642 12.3419 148.642 12.5013ZM126.989 7.4764C127.043 7.53077 127.116 7.56077 127.193 7.56077C127.269 7.56077 127.343 7.53077 127.396 7.4764L128.119 6.75077L128.088 8.77893C128.08 8.85893 128.107 8.93893 128.161 8.9983C128.214 9.0583 128.291 9.09268 128.371 9.0933C128.452 9.09455 128.529 9.06143 128.584 9.0033C128.639 8.94455 128.668 8.8658 128.662 8.78518L128.692 6.7295L129.438 7.47513V7.47575C129.551 7.57888 129.725 7.57513 129.834 7.467C129.943 7.3595 129.948 7.18513 129.846 7.07075L128.621 5.84511C128.566 5.79136 128.493 5.76074 128.417 5.76074C128.341 5.76074 128.267 5.79136 128.213 5.84511L126.989 7.07075C126.935 7.12512 126.905 7.19825 126.905 7.27449C126.905 7.35074 126.935 7.42449 126.989 7.47823V7.4764ZM130.003 9.41208V9.8627H126.838L126.846 9.43333L126.846 9.43395C126.836 9.28458 126.713 9.16707 126.563 9.16458C126.413 9.1627 126.286 9.27583 126.272 9.4252L126.26 10.1189C126.25 10.2921 126.369 10.4389 126.548 10.4389H130.292C130.451 10.4389 130.58 10.3102 130.58 10.1508V9.41269C130.58 9.25331 130.451 9.12456 130.292 9.12456C130.133 9.12456 130.004 9.25331 130.004 9.41269L130.003 9.41208ZM125.521 12.1002H125.521C125.521 12.2596 125.649 12.3884 125.809 12.3884H130.988C131.146 12.3884 131.275 12.2596 131.275 12.1002C131.275 11.9415 131.146 11.8127 130.988 11.8127H125.808C125.649 11.8127 125.519 11.9415 125.519 12.1002H125.521ZM126.7 13.3165C126.7 13.4753 126.829 13.6046 126.988 13.6046H129.808C129.967 13.6046 130.096 13.4753 130.096 13.3165C130.096 13.1571 129.967 13.0284 129.808 13.0284H126.988C126.829 13.0284 126.7 13.1571 126.7 13.3165ZM106.861 9.85522C107.019 9.85522 107.149 9.72584 107.149 9.56709C107.149 9.40771 107.019 9.27896 106.861 9.27896H101.933C101.774 9.27896 101.644 9.40771 101.644 9.56709C101.644 9.72584 101.774 9.85522 101.933 9.85522H106.861ZM105.281 11.5471C105.441 11.5471 105.569 11.4177 105.569 11.2589C105.569 11.0996 105.441 10.9708 105.281 10.9708H101.933C101.774 10.9708 101.644 11.0996 101.644 11.2589C101.644 11.4177 101.774 11.5471 101.933 11.5471H105.281ZM101.645 6.18337C101.645 6.34213 101.774 6.4715 101.933 6.4715H104.521C104.68 6.4715 104.808 6.34213 104.808 6.18337C104.808 6.024 104.68 5.89525 104.521 5.89525H101.933C101.774 5.89525 101.645 6.024 101.645 6.18337ZM77.5197 12.1002C77.5197 12.2589 77.6485 12.3883 77.8078 12.3883H82.9853C83.1446 12.3883 83.2734 12.2589 83.2734 12.1002C83.2734 11.9408 83.1447 11.812 82.9853 11.812H77.8072C77.6478 11.812 77.5191 11.9408 77.5191 12.1002H77.5197ZM78.931 10.2677C79.2735 10.4671 79.6578 10.5827 80.0535 10.6033C80.4303 10.6221 80.8066 10.5565 81.1547 10.4115C81.8772 10.1115 82.4166 9.48958 82.6122 8.73274C82.6397 8.65586 82.6341 8.57149 82.596 8.50024C82.5585 8.42837 82.4922 8.37587 82.4135 8.35524C82.3347 8.33524 82.2516 8.34899 82.1835 8.39337C82.116 8.43774 82.0697 8.50899 82.0572 8.589C81.7372 9.82149 80.3209 10.4103 79.2191 9.77274V9.77337C78.7191 9.48337 78.376 8.98524 78.2822 8.41524C78.1885 7.84524 78.3548 7.26336 78.7354 6.82898C79.1166 6.39461 79.6716 6.15335 80.2485 6.17148C80.826 6.18898 81.3648 6.4646 81.7179 6.9221L81.7879 7.01273L81.0554 6.72898H81.0547C80.9822 6.69335 80.8985 6.69023 80.8235 6.71961C80.7485 6.74898 80.6891 6.80836 80.6598 6.88335C80.6304 6.95835 80.6341 7.04273 80.6698 7.1146C80.7054 7.1871 80.7698 7.24148 80.8473 7.26398L82.2122 7.7921C82.3116 7.83773 82.4279 7.82273 82.5122 7.75398C82.5666 7.7096 82.6029 7.6471 82.6154 7.57772L82.8591 6.1171C82.8729 5.9671 82.7685 5.83146 82.6197 5.80647C82.4704 5.78147 82.3279 5.87585 82.2922 6.02273L82.196 6.59899L82.1504 6.54274H82.151C81.6866 5.95774 80.986 5.61024 80.2392 5.59461C79.4929 5.57898 78.7785 5.8971 78.2904 6.46211C77.8022 7.02712 77.5916 7.78087 77.7153 8.51715C77.8397 9.25341 78.2853 9.8959 78.9316 10.2703L78.931 10.2677ZM78.6991 13.3165C78.6991 13.4753 78.8285 13.6046 78.9872 13.6046H81.8072C81.9666 13.6046 82.0953 13.4753 82.0953 13.3165C82.0953 13.1571 81.9666 13.0284 81.8072 13.0284H78.9872C78.8285 13.0284 78.6991 13.1571 78.6991 13.3165ZM148.581 -17.2371C148.421 -17.2371 148.293 -17.1084 148.293 -16.949C148.293 -16.7902 148.421 -16.6609 148.581 -16.6609H151.515C151.674 -16.6609 151.803 -16.7902 151.803 -16.949C151.803 -17.1084 151.674 -17.2371 151.515 -17.2371H148.581ZM148.581 -15.3197C148.421 -15.3197 148.293 -15.1909 148.293 -15.0315C148.293 -14.8728 148.421 -14.7434 148.581 -14.7434H154.168C154.327 -14.7434 154.456 -14.8728 154.456 -15.0315C154.456 -15.1909 154.327 -15.3197 154.168 -15.3197H148.581ZM148.581 -13.3997C148.421 -13.3997 148.293 -13.2709 148.293 -13.1115C148.293 -12.9528 148.421 -12.8234 148.581 -12.8234H154.168C154.327 -12.8234 154.456 -12.9528 154.456 -13.1115C154.456 -13.2709 154.327 -13.3997 154.168 -13.3997H148.581ZM148.293 -11.1934C148.293 -11.0347 148.421 -10.9053 148.581 -10.9053H154.168C154.327 -10.9053 154.456 -11.0347 154.456 -11.1934C154.456 -11.3528 154.327 -11.4816 154.168 -11.4816H148.581C148.421 -11.4816 148.293 -11.3528 148.293 -11.1934ZM123.753 -18.8416C123.595 -18.8416 123.466 -18.7128 123.466 -18.5535C123.466 -18.3947 123.595 -18.2653 123.753 -18.2653H127.29C127.45 -18.2653 127.578 -18.3947 127.578 -18.5535C127.578 -18.7128 127.45 -18.8416 127.29 -18.8416H123.753ZM123.465 -16.2429H123.466C123.466 -16.0841 123.595 -15.9547 123.753 -15.9547H129.553C129.713 -15.9547 129.841 -16.0841 129.841 -16.2429C129.841 -16.4022 129.713 -16.531 129.553 -16.531H123.753C123.594 -16.531 123.465 -16.4022 123.465 -16.2429H123.465ZM123.465 -13.9304H123.466C123.466 -13.7716 123.595 -13.6429 123.753 -13.6429H128.575C128.734 -13.6429 128.863 -13.7716 128.863 -13.9304C128.863 -14.0898 128.734 -14.2185 128.575 -14.2185H123.753C123.594 -14.2185 123.465 -14.0898 123.465 -13.9304H123.465ZM127.062 -10.8216L127.062 -10.8222C127.062 -10.6628 127.191 -10.5341 127.35 -10.5341H130.887H130.886C131.046 -10.5341 131.175 -10.6628 131.175 -10.8222C131.175 -10.981 131.046 -11.1103 130.886 -11.1103H127.349C127.19 -11.1103 127.061 -10.981 127.061 -10.8222L127.062 -10.8216ZM101.519 -11.8953L101.52 -11.896C101.52 -11.7372 101.649 -11.6078 101.808 -11.6078H106.987C107.147 -11.6078 107.275 -11.7372 107.275 -11.896C107.275 -12.0553 107.147 -12.1841 106.987 -12.1841H101.806C101.647 -12.1841 101.518 -12.0553 101.518 -11.896L101.519 -11.8953ZM102.699 -10.6797C102.699 -10.5209 102.828 -10.3922 102.987 -10.3922H105.807C105.966 -10.3922 106.095 -10.5209 106.095 -10.6797C106.095 -10.8391 105.966 -10.9678 105.807 -10.9678H102.987C102.828 -10.9678 102.699 -10.8391 102.699 -10.6797ZM102.488 -18.124H102.456L102.457 -18.1253C102.297 -18.1253 102.169 -17.9959 102.169 -17.8372V-15.7746L102.034 -15.9477C101.935 -16.0721 101.755 -16.094 101.63 -15.9971C101.506 -15.8996 101.484 -15.7202 101.58 -15.5946L102.225 -14.7721H102.226C102.28 -14.7009 102.363 -14.659 102.452 -14.6577C102.541 -14.6571 102.626 -14.6977 102.681 -14.7671L103.329 -15.5946C103.426 -15.7196 103.405 -15.8996 103.28 -15.9971C103.155 -16.094 102.975 -16.0715 102.878 -15.9477L102.742 -15.7746V-17.549H105.348V-17.5484C105.507 -17.5484 105.636 -17.6771 105.636 -17.8365C105.636 -17.9953 105.507 -18.1246 105.348 -18.1246L102.488 -18.124ZM105.512 -15.7941L105.513 -15.7947C105.638 -15.6985 105.818 -15.7204 105.915 -15.8447L106.05 -16.016V-14.2435H103.445V-14.2441C103.286 -14.2441 103.157 -14.1148 103.157 -13.956C103.157 -13.7966 103.286 -13.6679 103.445 -13.6679H106.338C106.497 -13.6679 106.626 -13.7966 106.626 -13.956V-16.0166L106.761 -15.8454C106.859 -15.721 107.038 -15.6991 107.163 -15.7954C107.287 -15.8929 107.31 -16.0729 107.213 -16.1979L106.58 -17.0041C106.452 -17.181 106.223 -17.181 106.096 -17.0041L105.465 -16.1985V-16.1991C105.368 -16.0741 105.39 -15.8941 105.514 -15.796L105.512 -15.7941ZM77.2002 -18.9548L77.2009 -18.9554C77.0415 -18.9554 76.9127 -18.8266 76.9127 -18.6673C76.9127 -18.5085 77.0415 -18.3791 77.2009 -18.3791H83.3721C83.5308 -18.3791 83.6602 -18.5085 83.6602 -18.6673C83.6602 -18.8266 83.5308 -18.9554 83.3721 -18.9554L77.2002 -18.9548ZM81.0697 -19.8829L81.0703 -19.8835C81.229 -19.8835 81.3578 -20.0123 81.3578 -20.171C81.3578 -20.3304 81.229 -20.4591 81.0703 -20.4591H78.4821C78.3234 -20.4591 78.194 -20.3304 78.194 -20.171C78.194 -20.0123 78.3234 -19.8835 78.4821 -19.8835L81.0697 -19.8829ZM76.1791 -17.6573C76.0204 -17.6573 75.891 -17.5285 75.891 -17.3692C75.891 -17.2104 76.0203 -17.0817 76.1791 -17.0817H81.8329C81.9922 -17.0817 82.121 -17.2104 82.121 -17.3692C82.121 -17.5285 81.9922 -17.6573 81.8329 -17.6573H76.1791ZM76.1791 -16.3598C76.0204 -16.3598 75.891 -16.231 75.891 -16.0723C75.891 -15.9129 76.0203 -15.7841 76.1791 -15.7841H80.8673C81.026 -15.7841 81.1548 -15.9129 81.1548 -16.0723C81.1548 -16.231 81.026 -16.3598 80.8673 -16.3598H76.1791ZM148.763 -39.0654H148.764C148.604 -39.0654 148.476 -38.9366 148.476 -38.7779C148.476 -38.6185 148.604 -38.4897 148.764 -38.4897H156.444C156.602 -38.4897 156.731 -38.6185 156.731 -38.7779C156.731 -38.9366 156.602 -39.0654 156.444 -39.0654H148.763ZM148.763 -37.0535L148.764 -37.0542C148.604 -37.0542 148.476 -36.9248 148.476 -36.766C148.476 -36.6067 148.604 -36.4779 148.764 -36.4779H152.403C152.562 -36.4779 152.691 -36.6067 152.691 -36.766C152.691 -36.9248 152.562 -37.0542 152.403 -37.0542L148.763 -37.0535ZM148.763 -35.0423L148.764 -35.043C148.604 -35.043 148.476 -34.9136 148.476 -34.7548C148.476 -34.5955 148.604 -34.4667 148.764 -34.4667H152.403C152.562 -34.4667 152.691 -34.5955 152.691 -34.7548C152.691 -34.9136 152.562 -35.043 152.403 -35.043L148.763 -35.0423ZM122.861 -42.6761C122.701 -42.6761 122.573 -42.5473 122.573 -42.388C122.573 -42.2292 122.701 -42.0998 122.861 -42.0998H126.173C126.333 -42.0998 126.461 -42.2292 126.461 -42.388C126.461 -42.5473 126.333 -42.6761 126.173 -42.6761H122.861ZM122.573 -40.223C122.573 -40.0642 122.701 -39.9355 122.861 -39.9355H129.168C129.327 -39.9355 129.456 -40.0642 129.456 -40.223C129.456 -40.3824 129.327 -40.5111 129.168 -40.5111H122.861C122.701 -40.5111 122.573 -40.3824 122.573 -40.223ZM122.573 -38.058C122.573 -37.8986 122.701 -37.7699 122.861 -37.7699H125.324C125.484 -37.7699 125.613 -37.8986 125.613 -38.058C125.613 -38.2168 125.484 -38.3455 125.324 -38.3455H122.861C122.701 -38.3455 122.573 -38.2168 122.573 -38.058ZM122.573 -35.8937C122.573 -35.735 122.701 -35.6056 122.861 -35.6056H125.324C125.484 -35.6056 125.613 -35.7349 125.613 -35.8937C125.613 -36.0531 125.484 -36.1818 125.324 -36.1818H122.861C122.701 -36.1818 122.573 -36.0531 122.573 -35.8937ZM100.201 -42.9231C100.042 -42.9231 99.9132 -42.7938 99.9132 -42.635C99.9132 -42.4756 100.042 -42.3469 100.201 -42.3469H103.841C104 -42.3469 104.129 -42.4756 104.129 -42.635C104.129 -42.7938 104 -42.9231 103.841 -42.9231H100.201ZM100.201 -40.5438V-40.5432C100.042 -40.5432 99.9132 -40.4144 99.9132 -40.2557C99.9132 -40.0963 100.042 -39.9675 100.201 -39.9675H107.133H107.133C107.292 -39.9675 107.421 -40.0963 107.421 -40.2557C107.421 -40.4144 107.292 -40.5432 107.133 -40.5432L100.201 -40.5438ZM100.201 -38.1638V-38.1632C100.042 -38.1632 99.9132 -38.0344 99.9132 -37.875C99.9132 -37.7163 100.042 -37.5875 100.201 -37.5875H102.91H102.91C103.069 -37.5875 103.198 -37.7163 103.198 -37.875C103.198 -38.0344 103.069 -38.1632 102.91 -38.1632L100.201 -38.1638ZM99.9132 -35.4963C99.9132 -35.3375 100.042 -35.2081 100.201 -35.2081H102.91H102.91C103.069 -35.2081 103.198 -35.3375 103.198 -35.4963C103.198 -35.6556 103.069 -35.7844 102.91 -35.7844H100.201H100.201C100.042 -35.7844 99.9132 -35.6557 99.9132 -35.4963ZM105.534 -37.9788L106.472 -36.9745H104.325C104.166 -36.9745 104.037 -36.8451 104.037 -36.6863C104.037 -36.5269 104.166 -36.3982 104.325 -36.3982H106.471L105.533 -35.3938H105.534C105.426 -35.2776 105.432 -35.0957 105.548 -34.9876C105.664 -34.8794 105.846 -34.8863 105.954 -35.0026L107.331 -36.4744H107.33C107.389 -36.5288 107.422 -36.6051 107.422 -36.6851C107.422 -36.7651 107.389 -36.8413 107.33 -36.8963L105.954 -38.3682H105.954C105.846 -38.4844 105.665 -38.4913 105.548 -38.3832C105.432 -38.2751 105.426 -38.0932 105.534 -37.9769L105.534 -37.9788ZM80.6267 -36.7969C80.6267 -36.6382 80.7554 -36.5094 80.9142 -36.5094H85.0424C85.2017 -36.5094 85.3305 -36.6382 85.3305 -36.7969C85.3305 -36.9563 85.2017 -37.0851 85.0424 -37.0851H80.9142C80.7554 -37.0851 80.6267 -36.9563 80.6267 -36.7969ZM80.6267 -35.4213C80.6267 -35.2619 80.7554 -35.1332 80.9142 -35.1332H85.0424C85.2017 -35.1332 85.3305 -35.2619 85.3305 -35.4213C85.3305 -35.5801 85.2017 -35.7094 85.0424 -35.7094H80.9142C80.7554 -35.7094 80.6267 -35.5801 80.6267 -35.4213ZM80.6267 -40.597C80.6267 -40.4383 80.7554 -40.3095 80.9142 -40.3095H85.0424C85.2017 -40.3095 85.3305 -40.4383 85.3305 -40.597C85.3305 -40.7564 85.2017 -40.8851 85.0424 -40.8851H80.9142C80.7554 -40.8851 80.6267 -40.7564 80.6267 -40.597ZM80.6267 -39.2214C80.6267 -39.062 80.7554 -38.9333 80.9142 -38.9333H85.0424C85.2017 -38.9333 85.3305 -39.062 85.3305 -39.2214C85.3305 -39.3801 85.2017 -39.5095 85.0424 -39.5095H80.9142C80.7554 -39.5095 80.6267 -39.3801 80.6267 -39.2214ZM125.257 -59.8982H125.256C125.256 -59.7394 125.385 -59.6101 125.545 -59.6101H130.723C130.882 -59.6101 131.011 -59.7394 131.011 -59.8982C131.011 -60.0576 130.882 -60.1863 130.723 -60.1863H125.545C125.386 -60.1863 125.257 -60.0576 125.257 -59.8982ZM125.257 -58.6819L125.256 -58.6826C125.256 -58.5232 125.385 -58.3944 125.545 -58.3944H130.723C130.882 -58.3944 131.011 -58.5232 131.011 -58.6826C131.011 -58.8413 130.882 -58.9701 130.723 -58.9701H125.545C125.386 -58.9701 125.257 -58.8413 125.257 -58.6826L125.257 -58.6819ZM128.081 -66.24H126.243C126.084 -66.24 125.955 -66.1113 125.955 -65.9519C125.955 -65.7931 126.084 -65.6637 126.243 -65.6637H127.831L127.857 -63.9206L127.132 -64.6455C127.02 -64.7574 126.838 -64.7574 126.725 -64.6455C126.671 -64.5912 126.641 -64.518 126.641 -64.4418C126.641 -64.3655 126.671 -64.2918 126.725 -64.2381L127.951 -63.0124C128.005 -62.9587 128.078 -62.928 128.155 -62.928C128.231 -62.928 128.304 -62.9587 128.358 -63.0124L129.584 -64.2374V-64.238C129.638 -64.2918 129.668 -64.3655 129.668 -64.4418C129.668 -64.518 129.638 -64.5912 129.584 -64.6455C129.472 -64.7574 129.29 -64.7574 129.177 -64.6455L128.431 -63.8999L128.4 -65.9556V-65.955C128.397 -66.1118 128.27 -66.2381 128.113 -66.2387H128.081L128.081 -66.24ZM129.739 -62.5875V-62.1369H126.575L126.583 -62.5663L126.582 -62.5657C126.584 -62.7238 126.458 -62.8538 126.3 -62.8569C126.141 -62.8581 126.011 -62.7319 126.008 -62.5738L125.996 -61.8807C125.986 -61.7075 126.105 -61.5607 126.282 -61.5607H130.026C130.186 -61.5607 130.314 -61.6894 130.314 -61.8488V-62.5882C130.314 -62.7469 130.186 -62.8757 130.026 -62.8757C129.868 -62.8757 129.738 -62.7469 129.738 -62.5882L129.739 -62.5875ZM101.369 -64.5763L101.177 -64.8382C101.094 -64.9519 100.935 -64.9776 100.821 -64.8957C100.706 -64.8126 100.681 -64.6526 100.764 -64.5382L101.328 -63.7607H101.327C101.367 -63.6994 101.43 -63.6576 101.502 -63.6457C101.574 -63.6338 101.647 -63.6532 101.704 -63.6988L102.482 -64.2632H102.482C102.596 -64.3457 102.622 -64.5051 102.539 -64.6194C102.457 -64.7338 102.297 -64.7594 102.182 -64.6769L101.862 -64.4438L101.886 -64.5326C101.995 -64.9163 102.2 -65.2657 102.482 -65.5476C102.92 -65.9845 103.514 -66.2301 104.132 -66.2301C104.751 -66.2301 105.344 -65.9844 105.782 -65.5476C106.22 -65.1101 106.466 -64.5163 106.466 -63.8977C106.466 -63.279 106.22 -62.6852 105.782 -62.2477C105.523 -61.9859 105.205 -61.7902 104.854 -61.6765C104.52 -61.569 104.165 -61.5377 103.817 -61.5852C103.095 -61.6821 102.46 -62.1121 102.102 -62.7465C102.032 -62.869 101.877 -62.9121 101.754 -62.8427C101.632 -62.7727 101.588 -62.6171 101.658 -62.4946C101.907 -62.0565 102.267 -61.6927 102.701 -61.439C103.136 -61.1859 103.63 -61.0521 104.133 -61.0521C104.888 -61.0521 105.612 -61.3515 106.146 -61.8852C106.679 -62.419 106.979 -63.1433 106.979 -63.8977C106.979 -64.6527 106.679 -65.3758 106.145 -65.9095C105.611 -66.4433 104.888 -66.7433 104.133 -66.7433C103.508 -66.7427 102.9 -66.5364 102.403 -66.1564C101.907 -65.7764 101.55 -65.2433 101.386 -64.6395L101.369 -64.5763ZM103.682 -63.5269V-63.5263C103.682 -63.4138 103.748 -63.3113 103.851 -63.2645L104.651 -62.8032C104.788 -62.7245 104.963 -62.7713 105.043 -62.9082C105.121 -63.0457 105.074 -63.2207 104.937 -63.3001L104.257 -63.6919V-65.0526C104.257 -65.2113 104.128 -65.3407 103.969 -65.3407C103.81 -65.3407 103.681 -65.2113 103.681 -65.0526L103.682 -63.5269ZM101.546 -60.1863L101.545 -60.1857C101.386 -60.1857 101.257 -60.0569 101.257 -59.8976C101.257 -59.7388 101.386 -59.6094 101.545 -59.6094H106.724C106.883 -59.6094 107.012 -59.7388 107.012 -59.8976C107.012 -60.0569 106.883 -60.1857 106.724 -60.1857L101.546 -60.1863ZM101.257 -58.6819C101.257 -58.5226 101.386 -58.3938 101.545 -58.3938H106.724C106.883 -58.3938 107.012 -58.5226 107.012 -58.6819C107.012 -58.8407 106.883 -58.9694 106.724 -58.9694H101.545C101.386 -58.9694 101.257 -58.8407 101.257 -58.6819ZM52.2302 5.15744C52.2302 5.31681 52.359 5.44557 52.5177 5.44557H55.9902C56.1496 5.44557 56.2783 5.31681 56.2783 5.15744C56.2783 4.99869 56.1496 4.86994 55.9902 4.86994H52.5184C52.3596 4.86994 52.2309 4.99868 52.2309 5.15744H52.2302ZM52.2302 7.42688V7.42751C52.2302 7.58626 52.359 7.71501 52.5177 7.71501H59.1289C59.2877 7.71501 59.4171 7.58626 59.4171 7.42751C59.4171 7.26813 59.2877 7.13938 59.1289 7.13938H52.5184C52.3596 7.13938 52.2309 7.26813 52.2309 7.42751L52.2302 7.42688ZM52.2302 9.69568C52.2302 9.85505 52.359 9.9838 52.5177 9.9838H55.5797C55.7384 9.9838 55.8678 9.85506 55.8678 9.69568C55.8678 9.53693 55.7384 9.40755 55.5797 9.40755H52.5177C52.359 9.40755 52.2302 9.53693 52.2302 9.69568ZM52.2302 11.9658C52.2302 12.1245 52.359 12.2539 52.5177 12.2539H55.1003C55.2597 12.2539 55.3884 12.1245 55.3884 11.9658C55.3884 11.8064 55.2597 11.6776 55.1003 11.6776H52.5177C52.359 11.6776 52.2302 11.8064 52.2302 11.9658ZM29.0862 5.2376C28.9269 5.2376 28.7981 5.36635 28.7981 5.52573C28.7981 5.68448 28.9269 5.81385 29.0862 5.81385H32.563C32.7224 5.81385 32.8512 5.68448 32.8512 5.52573C32.8512 5.36635 32.7224 5.2376 32.563 5.2376H29.0862ZM29.0862 7.50944C28.9269 7.50944 28.7981 7.63819 28.7981 7.79757C28.7981 7.95632 28.9269 8.08569 29.0862 8.08569H35.7069C35.8662 8.08569 35.995 7.95632 35.995 7.79757C35.995 7.63819 35.8663 7.50944 35.7069 7.50944H29.0862ZM29.0862 9.78128C28.9269 9.78128 28.7981 9.91065 28.7981 10.0694C28.7981 10.2288 28.9269 10.3575 29.0862 10.3575H35.7069C35.8662 10.3575 35.995 10.2288 35.995 10.0694C35.995 9.91066 35.8663 9.78128 35.7069 9.78128H29.0862ZM29.0862 12.0531V12.0537C28.9269 12.0537 28.7981 12.1825 28.7981 12.3412C28.7981 12.5006 28.9269 12.6294 29.0862 12.6294H33.5843C33.7431 12.6294 33.8724 12.5006 33.8724 12.3412C33.8724 12.1825 33.7431 12.0537 33.5843 12.0537L29.0862 12.0531ZM6.27023 4.86879C6.27023 5.02754 6.39898 5.15629 6.55836 5.15629H9.54204C9.70142 5.15629 9.83017 5.02754 9.83017 4.86879C9.83017 4.70941 9.70142 4.58066 9.54204 4.58066H6.55772C6.39897 4.58066 6.27023 4.70941 6.27023 4.86879ZM6.27023 6.81886C6.27023 6.97761 6.39898 7.10699 6.55836 7.10699H12.2409C12.4003 7.10699 12.529 6.97762 12.529 6.81886C12.529 6.65949 12.4003 6.53074 12.2409 6.53074H6.55772C6.39897 6.53074 6.27023 6.65949 6.27023 6.81886ZM6.27023 8.7707C6.27023 8.92945 6.39898 9.05883 6.55836 9.05883H12.2409C12.4003 9.05883 12.529 8.92946 12.529 8.7707C12.529 8.61133 12.4003 8.48257 12.2409 8.48257H6.55772C6.39897 8.48257 6.27023 8.61133 6.27023 8.7707ZM6.27023 10.7225C6.27023 10.8819 6.39898 11.0107 6.55836 11.0107H12.2409C12.4003 11.0107 12.529 10.8819 12.529 10.7225C12.529 10.5638 12.4003 10.4344 12.2409 10.4344H6.55772C6.39897 10.4344 6.27023 10.5638 6.27023 10.7225ZM-18.4802 12.1007V12.1013C-18.4802 12.2607 -18.3514 12.3894 -18.192 12.3894H-13.0133C-12.8546 12.3894 -12.7258 12.2607 -12.7258 12.1013C-12.7258 11.9425 -12.8546 11.8138 -13.0133 11.8138H-18.1927C-18.3514 11.8138 -18.4808 11.9425 -18.4808 12.1013L-18.4802 12.1007ZM-17.3008 13.3176C-17.3008 13.4763 -17.172 13.6057 -17.0127 13.6057H-14.1927C-14.0339 13.6057 -13.9045 13.4763 -13.9045 13.3176C-13.9045 13.1582 -14.0339 13.0294 -14.1927 13.0294H-17.0127C-17.172 13.0294 -17.3008 13.1582 -17.3008 13.3176ZM-38.152 7.35373L-38.1526 7.35435C-38.2064 7.29998 -38.2795 7.26998 -38.3564 7.26998C-38.4326 7.26998 -38.5057 7.29998 -38.5601 7.35435L-39.3057 8.09999L-39.3376 6.04558C-39.3395 5.88683 -39.4695 5.76059 -39.6276 5.76184C-39.7039 5.76247 -39.7764 5.79309 -39.8295 5.84809C-39.8826 5.90247 -39.912 5.97559 -39.9107 6.05183L-39.8807 8.08L-40.6057 7.35436C-40.6595 7.29999 -40.7326 7.26999 -40.8095 7.26999C-40.8857 7.26999 -40.9588 7.29999 -41.0126 7.35436C-41.067 7.40811 -41.0976 7.48124 -41.0976 7.55811C-41.0976 7.63436 -41.067 7.70748 -41.0126 7.76185L-39.7863 8.98811H-39.787C-39.7326 9.04186 -39.6595 9.07248 -39.5832 9.07248C-39.5063 9.07248 -39.4332 9.04186 -39.3795 8.98811L-38.1538 7.76185C-38.0995 7.70748 -38.0695 7.63435 -38.0695 7.55811C-38.0695 7.48123 -38.0995 7.40811 -38.1538 7.35436L-38.152 7.35373ZM-37.997 9.41309V9.86371H-41.162L-41.1545 9.43434L-41.1551 9.43496C-41.1532 9.27746 -41.2788 9.14746 -41.437 9.14371C-41.5951 9.14246 -41.7251 9.26809 -41.7282 9.42621L-41.7401 10.12C-41.7507 10.2931 -41.6319 10.44 -41.4544 10.44H-37.7101C-37.5514 10.44 -37.422 10.3112 -37.422 10.1518V9.41307C-37.422 9.2537 -37.5514 9.12494 -37.7101 9.12494C-37.8695 9.12494 -37.9982 9.25369 -37.9982 9.41307L-37.997 9.41309ZM-42.4789 12.1012C-42.4789 12.2606 -42.3502 12.3894 -42.1914 12.3894H-37.0114C-36.8527 12.3894 -36.7239 12.2606 -36.7239 12.1012C-36.7239 11.9425 -36.8527 11.8137 -37.0114 11.8137H-42.1914C-42.3502 11.8137 -42.4789 11.9425 -42.4789 12.1012ZM-67.4789 4.87069V4.87131C-67.6377 4.87131 -67.767 5.00006 -67.767 5.15881C-67.767 5.31819 -67.6377 5.44694 -67.4789 5.44694H-64.0064C-63.8477 5.44694 -63.7183 5.31819 -63.7183 5.15881C-63.7183 5.00006 -63.8477 4.87131 -64.0064 4.87131L-67.4789 4.87069ZM-67.4789 7.13949C-67.6377 7.13949 -67.767 7.26886 -67.767 7.42761C-67.767 7.58699 -67.6377 7.71574 -67.4789 7.71574H-60.8684C-60.709 7.71574 -60.5802 7.58699 -60.5802 7.42761C-60.5802 7.26886 -60.709 7.13949 -60.8684 7.13949H-67.4789ZM-67.767 9.69691C-67.767 9.85566 -67.6377 9.98442 -67.4789 9.98442H-64.4164C-64.2576 9.98442 -64.1282 9.85566 -64.1282 9.69691C-64.1282 9.53754 -64.2576 9.40879 -64.4164 9.40879H-67.4789C-67.6377 9.40879 -67.767 9.53753 -67.767 9.69691ZM-67.767 11.9664C-67.767 12.1257 -67.6377 12.2545 -67.4789 12.2545H-64.8957C-64.7363 12.2545 -64.6076 12.1257 -64.6076 11.9664C-64.6076 11.8076 -64.7363 11.6782 -64.8957 11.6782H-67.4789C-67.6377 11.6782 -67.767 11.8076 -67.767 11.9664ZM53.521 -11.8992C53.521 -11.7399 53.6497 -11.6111 53.8091 -11.6111H58.9878H58.9872C59.1466 -11.6111 59.2753 -11.7399 59.2753 -11.8992C59.2753 -12.058 59.1466 -12.1867 58.9872 -12.1867H53.8091C53.6504 -12.1867 53.521 -12.058 53.521 -11.8992ZM54.7003 -10.683C54.7003 -10.5242 54.8291 -10.3948 54.9885 -10.3948H57.8085C57.9672 -10.3948 58.0966 -10.5242 58.0966 -10.683C58.0966 -10.8424 57.9672 -10.9711 57.8085 -10.9711H54.9885C54.8291 -10.9711 54.7003 -10.8424 54.7003 -10.683ZM28.2907 -14.3236C28.2907 -14.1649 28.4201 -14.0355 28.5789 -14.0355H31.1563C31.3151 -14.0355 31.4444 -14.1649 31.4444 -14.3236C31.4444 -14.483 31.3151 -14.6117 31.1563 -14.6117H28.5782C28.4195 -14.6117 28.2901 -14.483 28.2901 -14.3236H28.2907ZM28.2907 -12.0599C28.2907 -11.9006 28.4201 -11.7718 28.5789 -11.7718H31.1563C31.3151 -11.7718 31.4444 -11.9006 31.4444 -12.0599C31.4444 -12.2187 31.3151 -12.3481 31.1563 -12.3481H28.5782C28.4195 -12.3481 28.2901 -12.2187 28.2901 -12.0599H28.2907ZM28.2907 -18.8524V-18.8518C28.2907 -18.693 28.4201 -18.5643 28.5789 -18.5643H32.0432C32.2026 -18.5643 32.3313 -18.693 32.3313 -18.8518C32.3313 -19.0112 32.2026 -19.1399 32.0432 -19.1399H28.5782C28.4195 -19.1399 28.2901 -19.0112 28.2901 -18.8518L28.2907 -18.8524ZM28.2907 -16.5881C28.2907 -16.4287 28.4201 -16.3 28.5789 -16.3H35.1745C35.3333 -16.3 35.4627 -16.4287 35.4627 -16.5881C35.4627 -16.7469 35.3333 -16.8756 35.1745 -16.8756H28.5782C28.4195 -16.8756 28.2901 -16.7469 28.2901 -16.5881H28.2907ZM5.51634 -14.7462C5.45009 -14.7087 5.40196 -14.6456 5.38259 -14.5718C5.36321 -14.4987 5.37384 -14.4199 5.41196 -14.3543C5.49196 -14.2181 5.66633 -14.1712 5.80383 -14.2493L10.2658 -16.8256L10.0526 -16.2963C9.99451 -16.1487 10.0664 -15.9825 10.2126 -15.9231C10.3601 -15.8644 10.5276 -15.9363 10.5864 -16.0831L11.1033 -17.3706H11.1039C11.1414 -17.4531 11.1383 -17.5481 11.0945 -17.6281C11.0514 -17.7075 10.9733 -17.7619 10.8833 -17.775L9.49513 -17.9725H9.49576C9.33826 -17.995 9.19263 -17.8856 9.17012 -17.7288C9.14825 -17.5719 9.257 -17.4263 9.41387 -17.4038L9.97824 -17.3225L5.51634 -14.7462ZM5.48696 -13.5612C5.32821 -13.5612 5.19883 -13.4318 5.19883 -13.2731V-10.9881C5.19883 -10.8287 5.32821 -10.7 5.48696 -10.7H6.76696C6.92634 -10.7 7.05509 -10.8287 7.05509 -10.9881V-13.2731C7.05509 -13.4318 6.92634 -13.5612 6.76696 -13.5612H5.48696ZM7.7588 -14.3612C7.60005 -14.3612 7.4713 -14.2318 7.4713 -14.0731V-10.9899C7.4713 -10.8305 7.60005 -10.7017 7.7588 -10.7017H9.03568C9.19443 -10.7017 9.32381 -10.8305 9.32381 -10.9899V-14.0731C9.32381 -14.2318 9.19444 -14.3612 9.03568 -14.3612H7.7588ZM11.3076 -15.3099H10.0326C9.87384 -15.3099 9.74447 -15.1806 9.74447 -15.0218V-10.99C9.74447 -10.8306 9.87384 -10.7018 10.0326 -10.7018H11.3095C11.4682 -10.7018 11.597 -10.8306 11.597 -10.99V-15.0218C11.597 -15.1806 11.4682 -15.3099 11.3095 -15.3099H11.3076ZM-19.4236 -18.9231C-19.583 -18.9231 -19.7117 -18.7937 -19.7117 -18.6349C-19.7117 -18.4756 -19.583 -18.3468 -19.4236 -18.3468H-15.7823H-15.7829C-15.6236 -18.3468 -15.4948 -18.4755 -15.4948 -18.6349C-15.4948 -18.7937 -15.6236 -18.9231 -15.7829 -18.9231H-19.4236ZM-19.4236 -16.5437V-16.5431C-19.583 -16.5431 -19.7117 -16.4143 -19.7117 -16.2556C-19.7117 -16.0962 -19.583 -15.9674 -19.4236 -15.9674H-11.778C-11.6192 -15.9674 -11.4899 -16.0962 -11.4899 -16.2556C-11.4899 -16.4143 -11.6192 -16.5431 -11.778 -16.5431L-19.4236 -16.5437ZM-19.4236 -14.1643C-19.583 -14.1643 -19.7117 -14.035 -19.7117 -13.8762C-19.7117 -13.7168 -19.583 -13.5881 -19.4236 -13.5881H-16.7148H-16.7154C-16.5561 -13.5881 -16.4273 -13.7168 -16.4273 -13.8762C-16.4273 -14.035 -16.556 -14.1643 -16.7154 -14.1643H-19.4236ZM-19.7117 -11.4968C-19.7117 -11.3374 -19.583 -11.2087 -19.4236 -11.2087H-16.7148H-16.7154C-16.5561 -11.2087 -16.4273 -11.3374 -16.4273 -11.4968C-16.4273 -11.6556 -16.556 -11.7843 -16.7154 -11.7843H-19.4242H-19.4236C-19.583 -11.7843 -19.7117 -11.6556 -19.7117 -11.4968ZM-15.3229 -14.7525V-11.4951V-11.4957C-15.3229 -11.3363 -15.1942 -11.2076 -15.0348 -11.2076H-11.7774H-11.778C-11.6186 -11.2076 -11.4899 -11.3363 -11.4899 -11.4957V-12.4082V-12.4076C-11.4899 -12.5669 -11.6186 -12.6957 -11.778 -12.6957C-11.9367 -12.6957 -12.0661 -12.5669 -12.0661 -12.4076V-11.7838H-14.7468V-14.4644H-12.5205C-12.3611 -14.4644 -12.2324 -14.5938 -12.2324 -14.7526C-12.2324 -14.912 -12.3611 -15.0407 -12.5205 -15.0407H-15.0349C-15.1937 -15.0407 -15.3229 -14.9119 -15.3229 -14.7525ZM-13.6679 -12.3493L-13.646 -12.3255L-13.6466 -12.3262C-13.5441 -12.2205 -13.3785 -12.2093 -13.2623 -12.2999L-11.6023 -13.6118C-11.4785 -13.7099 -11.4573 -13.8899 -11.5541 -14.0143C-11.6529 -14.138 -11.8323 -14.1587 -11.9566 -14.0618L-13.4135 -12.9124L-13.9285 -13.4449H-13.9292C-14.0392 -13.5587 -14.221 -13.5624 -14.3354 -13.453C-14.4492 -13.343 -14.4523 -13.1618 -14.3435 -13.0474L-13.6679 -12.3493ZM55.5065 -41.1813L55.5059 -41.1819C55.5059 -41.0226 55.6353 -40.8938 55.794 -40.8938C55.9534 -40.8938 56.0821 -41.0225 56.0821 -41.1819V-42.1513C56.0821 -42.3107 55.9534 -42.4394 55.794 -42.4394C55.6353 -42.4394 55.5059 -42.3107 55.5059 -42.1513L55.5065 -41.1813ZM53.5384 -41.9125L53.5377 -41.9132C53.4584 -42.0494 53.284 -42.0969 53.1465 -42.0188C53.0102 -41.94 52.9627 -41.7657 53.0402 -41.6282L53.5259 -40.7882C53.6052 -40.6519 53.7796 -40.6044 53.9165 -40.6819C54.054 -40.7613 54.1015 -40.9363 54.0227 -41.0738L53.5384 -41.9125ZM57.6715 -40.6819C57.809 -40.6038 57.984 -40.6513 58.0634 -40.7882L58.5477 -41.6282H58.5471C58.5852 -41.6938 58.5952 -41.7719 58.5752 -41.8457C58.5559 -41.9188 58.5071 -41.9813 58.4415 -42.0188C58.304 -42.0969 58.1296 -42.0494 58.0502 -41.9132L57.5659 -41.0744V-41.0738C57.4871 -40.9363 57.5346 -40.7613 57.6715 -40.6819ZM52.7934 -35.8981L52.7921 -35.8987C52.7921 -35.74 52.9209 -35.6106 53.0803 -35.6106H58.2596C58.419 -35.6106 58.5478 -35.74 58.5478 -35.8987C58.5478 -36.0581 58.419 -36.1869 58.2596 -36.1869H53.0796C52.9203 -36.1869 52.7915 -36.0581 52.7915 -35.8987L52.7934 -35.8981ZM53.9715 -34.6831C53.9715 -34.5237 54.1003 -34.395 54.2596 -34.395H57.0796C57.2384 -34.395 57.3678 -34.5237 57.3678 -34.6831C57.3678 -34.8418 57.2384 -34.9706 57.0796 -34.9706H54.2596C54.1003 -34.9706 53.9715 -34.8418 53.9715 -34.6831ZM34.2288 -40.915H31.9888L31.9869 -40.9162C31.8282 -40.9162 31.6994 -40.7875 31.6994 -40.6281C31.6994 -40.4693 31.8281 -40.34 31.9869 -40.34H33.9387V-35.798H29.3981V-37.7286C29.3981 -37.8873 29.2693 -38.0167 29.11 -38.0167C28.9512 -38.0167 28.8218 -37.8874 28.8218 -37.7286V-35.5092C28.8218 -35.3499 28.9512 -35.2211 29.11 -35.2211H34.228C34.3868 -35.2211 34.5162 -35.3499 34.5162 -35.5092V-40.6267C34.5162 -40.7854 34.3868 -40.9148 34.228 -40.9148L34.2288 -40.915ZM7.20957 -36.63L7.2077 -36.6313C7.2077 -36.4725 7.33707 -36.3431 7.49583 -36.3431H11.8433C12.0027 -36.3431 12.1315 -36.4725 12.1315 -36.6313C12.1315 -36.7906 12.0027 -36.9194 11.8433 -36.9194H7.49711C7.33773 -36.9194 7.20898 -36.7906 7.20898 -36.6313L7.20957 -36.63ZM7.20957 -35.1813L7.2077 -35.1825C7.2077 -35.0238 7.33707 -34.895 7.49583 -34.895H11.8433C12.0027 -34.895 12.1315 -35.0237 12.1315 -35.1825C12.1315 -35.3419 12.0027 -35.4706 11.8433 -35.4706H7.49711C7.33773 -35.4706 7.20898 -35.3419 7.20898 -35.1825L7.20957 -35.1813ZM7.4977 -40.3449L11.8433 -40.3462C12.0027 -40.3462 12.1314 -40.4756 12.1314 -40.6343C12.1314 -40.7937 12.0027 -40.9224 11.8433 -40.9224H7.49706C7.33769 -40.9224 7.20893 -40.7937 7.20893 -40.6343C7.20893 -40.4756 7.33768 -40.3462 7.49706 -40.3462L7.4977 -40.3449ZM7.4977 -38.8956L11.8433 -38.8974C12.0027 -38.8974 12.1314 -39.0262 12.1314 -39.1849C12.1314 -39.3443 12.0027 -39.4731 11.8433 -39.4731H7.49706C7.33769 -39.4731 7.20893 -39.3443 7.20893 -39.1849C7.20893 -39.0262 7.33768 -38.8974 7.49706 -38.8974L7.4977 -38.8956ZM-19.2082 -35.8994C-19.2082 -35.74 -19.0794 -35.6112 -18.9207 -35.6112H-13.7407C-13.5819 -35.6112 -13.4532 -35.74 -13.4532 -35.8994C-13.4532 -36.0581 -13.5819 -36.1869 -13.7407 -36.1869H-18.92C-19.0794 -36.1869 -19.2082 -36.0581 -19.2082 -35.8994ZM-18.0294 -34.6831C-18.0294 -34.5243 -17.9001 -34.395 -17.7413 -34.395H-14.9213C-14.7619 -34.395 -14.6332 -34.5243 -14.6332 -34.6831C-14.6332 -34.8425 -14.7619 -34.9712 -14.9213 -34.9712H-17.7413C-17.9001 -34.9712 -18.0294 -34.8425 -18.0294 -34.6831ZM-45.4294 -42.3831C-45.4294 -42.2243 -45.3007 -42.0956 -45.1413 -42.0956H-41.8351C-41.6763 -42.0956 -41.5476 -42.2243 -41.5476 -42.3831C-41.5476 -42.5425 -41.6763 -42.6712 -41.8351 -42.6712H-45.1413C-45.3007 -42.6712 -45.4294 -42.5425 -45.4294 -42.3831ZM-45.4294 -40.2225C-45.4294 -40.0637 -45.3007 -39.935 -45.1413 -39.935H-38.8463C-38.6875 -39.935 -38.5588 -40.0637 -38.5588 -40.2225C-38.5588 -40.3818 -38.6875 -40.5106 -38.8463 -40.5106H-45.1413C-45.3007 -40.5106 -45.4294 -40.3818 -45.4294 -40.2225ZM-45.4294 -38.0618C-45.4294 -37.9031 -45.3007 -37.7743 -45.1413 -37.7743H-38.8463C-38.6875 -37.7743 -38.5588 -37.9031 -38.5588 -38.0618C-38.5588 -38.2212 -38.6875 -38.3499 -38.8463 -38.3499H-45.1413C-45.3007 -38.3499 -45.4294 -38.2212 -45.4294 -38.0618ZM-62.9181 -37.8587L-62.9213 -37.8606C-62.7619 -37.8606 -62.6331 -37.9899 -62.6331 -38.1487C-62.6331 -38.3081 -62.7619 -38.4368 -62.9213 -38.4368H-65.7413C-65.9 -38.4368 -66.0294 -38.3081 -66.0294 -38.1487C-66.0294 -37.9899 -65.9 -37.8606 -65.7413 -37.8606L-62.9181 -37.8587ZM-61.7388 -39.0749L-61.7419 -39.0768C-61.5825 -39.0768 -61.4537 -39.2056 -61.4537 -39.365C-61.4537 -39.5237 -61.5825 -39.6525 -61.7419 -39.6525H-66.9206C-67.0794 -39.6525 -67.2081 -39.5237 -67.2081 -39.365C-67.2081 -39.2056 -67.0794 -39.0768 -66.9206 -39.0768L-61.7388 -39.0749ZM-62.4363 -40.4187L-62.4394 -40.4206C-62.2806 -40.4206 -62.1513 -40.5499 -62.1513 -40.7087V-41.4474C-62.1513 -41.6062 -62.2806 -41.7356 -62.4394 -41.7356C-62.5988 -41.7356 -62.7275 -41.6062 -62.7275 -41.4474V-40.9968H-65.8925L-65.8843 -41.4256V-41.4249C-65.8825 -41.5837 -66.0087 -41.7137 -66.1668 -41.7162C-66.325 -41.7181 -66.455 -41.5924 -66.4581 -41.4343L-66.47 -40.74C-66.4806 -40.5662 -66.3612 -40.42 -66.1818 -40.42L-62.4363 -40.4187ZM-62.8788 -43.5043L-62.8819 -43.5062C-62.9363 -43.5605 -63.0094 -43.5905 -63.0856 -43.5905C-63.1619 -43.5905 -63.2356 -43.5605 -63.2894 -43.5062L-64.035 -42.7605L-64.065 -44.8156C-64.0675 -44.9737 -64.1969 -45.1006 -64.355 -45.0993C-64.5137 -45.0974 -64.6406 -44.9674 -64.6394 -44.8093L-64.6075 -42.7805L-65.3325 -43.5062H-65.3319C-65.3856 -43.5605 -65.4594 -43.5905 -65.5356 -43.5905C-65.6118 -43.5905 -65.685 -43.5605 -65.7393 -43.5062C-65.7931 -43.4524 -65.8237 -43.3793 -65.8237 -43.303C-65.8237 -43.2262 -65.7931 -43.153 -65.7393 -43.0993L-64.5137 -41.873C-64.4012 -41.7605 -64.2187 -41.7605 -64.1068 -41.873L-62.8812 -43.0993C-62.8268 -43.153 -62.7968 -43.2262 -62.7968 -43.303C-62.7968 -43.3793 -62.8268 -43.4524 -62.8812 -43.5062L-62.8788 -43.5043ZM53.262 -59.8963L53.2589 -59.8988C53.2589 -59.7394 53.3877 -59.6107 53.5464 -59.6107H58.7252C58.8845 -59.6107 59.0133 -59.7394 59.0133 -59.8988C59.0133 -60.0575 58.8845 -60.1863 58.7252 -60.1863H53.5484C53.389 -60.1863 53.2602 -60.0575 53.2602 -59.8988L53.262 -59.8963ZM53.262 -58.68L53.2589 -58.6825C53.2589 -58.5238 53.3877 -58.3944 53.5464 -58.3944H58.7252C58.8845 -58.3944 59.0133 -58.5238 59.0133 -58.6825C59.0133 -58.8419 58.8845 -58.9707 58.7252 -58.9707H53.5484C53.389 -58.9707 53.2602 -58.8419 53.2602 -58.6825L53.262 -58.68ZM28.6733 -66.92L28.6701 -66.9225C28.5108 -66.9225 28.382 -66.7938 28.382 -66.6344C28.382 -66.4757 28.5108 -66.3463 28.6701 -66.3463H32.3114H32.3108C32.4702 -66.3463 32.5989 -66.4757 32.5989 -66.6344C32.5989 -66.7938 32.4702 -66.9225 32.3108 -66.9225L28.6733 -66.92ZM28.3851 -64.2519L28.382 -64.255C28.382 -64.0956 28.5108 -63.9669 28.6701 -63.9669H35.602H35.6013C35.7607 -63.9669 35.8895 -64.0956 35.8895 -64.255C35.8895 -64.4138 35.7607 -64.5425 35.6013 -64.5425H28.6708C28.512 -64.5425 28.3827 -64.4138 28.3827 -64.255L28.3851 -64.2519ZM28.3851 -61.8725L28.382 -61.8756C28.382 -61.7163 28.5108 -61.5875 28.6701 -61.5875H31.3789H31.3783C31.5377 -61.5875 31.6664 -61.7163 31.6664 -61.8756C31.6664 -62.0344 31.5377 -62.1638 31.3783 -62.1638H28.6708C28.512 -62.1638 28.3827 -62.0344 28.3827 -61.8756L28.3851 -61.8725ZM28.3851 -59.4932L28.382 -59.4963C28.382 -59.3369 28.5108 -59.2082 28.6701 -59.2082H31.3789H31.3783C31.5377 -59.2082 31.6664 -59.3369 31.6664 -59.4963C31.6664 -59.655 31.5377 -59.7838 31.3783 -59.7838H28.6708C28.512 -59.7838 28.3827 -59.655 28.3827 -59.4963L28.3851 -59.4932ZM33.1501 -62.0938L33.1463 -62.0969C32.9876 -62.0969 32.8588 -61.9675 32.8588 -61.8088L32.8688 -61.3319V-61.3313C32.8713 -61.1732 33.0013 -61.0463 33.1595 -61.0482C33.3182 -61.0513 33.4444 -61.1819 33.442 -61.3407L33.4388 -61.52H34.0863V-59.7837H33.7863C33.6276 -59.7837 33.4988 -59.655 33.4988 -59.4962C33.4988 -59.3368 33.6276 -59.2081 33.7863 -59.2081H34.9632C35.122 -59.2081 35.2507 -59.3368 35.2507 -59.4962C35.2507 -59.655 35.122 -59.7837 34.9632 -59.7837H34.6632V-61.52H35.3145V-61.3244H35.3138C35.3138 -61.165 35.4432 -61.0363 35.602 -61.0363C35.7613 -61.0363 35.8901 -61.165 35.8901 -61.3244V-61.8088C35.8901 -61.9675 35.7613 -62.0969 35.602 -62.0969L33.1501 -62.0938ZM5.25888 -58.6832C5.25888 -58.5245 5.38763 -58.3951 5.54701 -58.3951H10.7264C10.8851 -58.3951 11.0139 -58.5245 11.0139 -58.6832C11.0139 -58.8426 10.8851 -58.9714 10.7264 -58.9714H5.54637C5.38762 -58.9714 5.25888 -58.8426 5.25888 -58.6832ZM5.25888 -59.8995C5.25888 -59.7401 5.38763 -59.6114 5.54701 -59.6114H10.7264C10.8851 -59.6114 11.0139 -59.7401 11.0139 -59.8995C11.0139 -60.0582 10.8851 -60.187 10.7264 -60.187H5.54637C5.38762 -60.187 5.25888 -60.0582 5.25888 -59.8995ZM-19.6179 -66.6345C-19.6179 -66.4752 -19.4885 -66.3464 -19.3298 -66.3464H-15.6898C-15.5304 -66.3464 -15.4017 -66.4752 -15.4017 -66.6345C-15.4017 -66.7933 -15.5304 -66.9227 -15.6898 -66.9227H-19.3292C-19.4879 -66.9227 -19.6173 -66.7933 -19.6173 -66.6345H-19.6179ZM-19.6179 -64.2552C-19.6179 -64.0964 -19.4885 -63.967 -19.3298 -63.967H-12.3979C-12.2386 -63.967 -12.1098 -64.0964 -12.1098 -64.2552C-12.1098 -64.4145 -12.2386 -64.5433 -12.3979 -64.5433H-19.3292C-19.4879 -64.5433 -19.6173 -64.4146 -19.6173 -64.2552H-19.6179ZM-19.6179 -61.8758C-19.6179 -61.7171 -19.4885 -61.5883 -19.3298 -61.5883H-12.3979C-12.2386 -61.5883 -12.1098 -61.7171 -12.1098 -61.8758C-12.1098 -62.0352 -12.2386 -62.1639 -12.3979 -62.1639H-19.3292C-19.4879 -62.1639 -19.6173 -62.0352 -19.6173 -61.8758H-19.6179ZM-19.6179 -59.4965C-19.6179 -59.3377 -19.4885 -59.2083 -19.3298 -59.2083H-12.3979C-12.2386 -59.2083 -12.1098 -59.3377 -12.1098 -59.4965C-12.1098 -59.6558 -12.2386 -59.7846 -12.3979 -59.7846H-19.3292C-19.4879 -59.7846 -19.6173 -59.6558 -19.6173 -59.4965H-19.6179ZM-42.7411 -59.8996H-42.7405C-42.7405 -59.7402 -42.6117 -59.6114 -42.453 -59.6114H-37.2743C-37.1149 -59.6114 -36.9861 -59.7402 -36.9861 -59.8996C-36.9861 -60.0583 -37.1149 -60.1871 -37.2743 -60.1871H-42.4524C-42.6111 -60.1871 -42.7399 -60.0583 -42.7399 -59.8996H-42.7411ZM-42.7411 -58.6833H-42.7405C-42.7405 -58.5246 -42.6117 -58.3952 -42.453 -58.3952H-37.2743C-37.1149 -58.3952 -36.9861 -58.5246 -36.9861 -58.6833C-36.9861 -58.8427 -37.1149 -58.9714 -37.2743 -58.9714H-42.4524C-42.6111 -58.9714 -42.7399 -58.8427 -42.7399 -58.6833H-42.7411Z" fill="white"/>
</g>
<defs>
<clipPath id="clip0_273_1179">
<rect width="16" height="16" fill="white"/>
</clipPath>
</defs>
</svg>
