<svg width="129" height="129" viewBox="0 0 129 129" fill="none" xmlns="http://www.w3.org/2000/svg">
<path d="M0.156982 113.01L40.934 120.894L126.415 128.139L128.157 0.138519L124.85 126.146L28.461 115.97L0.156982 113.01Z" fill="#393939" stroke="black" stroke-width="0.264" stroke-linecap="round"/>
<path d="M28.461 115.97L35.736 101.748L33.24 101.591C29.746 101.372 27.636 97.6995 29.251 94.6515L63.906 29.2795C65.674 25.9485 70.703 26.4355 71.9 30.0035L83.451 7.09653L20.162 9.76853L0.156982 113.01L28.461 115.97Z" fill="#F7F7F7" stroke="black" stroke-width="0.264" stroke-linecap="round"/>
<path d="M28.4609 115.97L35.7359 101.748L38.3409 101.912C41.1719 102.089 43.8529 100.644 45.2159 98.2015L59.7789 72.0965C59.8779 71.9195 60.0329 71.7985 60.2089 71.7385L60.2539 71.9045C61.2659 75.5935 68.6919 101.444 68.6919 101.444C69.2299 103.387 70.9439 104.796 72.9879 104.975L87.6919 106.263L90.6629 106.523C94.0249 106.818 96.5949 103.642 95.5399 100.498L82.3219 61.0985L71.8999 30.0035L85.9619 2.11952L128.157 0.138519L124.85 126.146L28.4609 115.97Z" fill="#909090" stroke="black" stroke-width="0.264" stroke-linecap="round"/>
<path d="M60.209 71.7385C60.49 71.6405 60.822 71.7005 61.05 71.9365L71.54 82.8505L83.759 95.5635L87.692 106.263L72.988 104.975C70.944 104.796 69.23 103.387 68.692 101.444C68.692 101.444 61.266 75.5935 60.254 71.9045L60.209 71.7385Z" fill="#C2C2C2" stroke="black" stroke-width="0.264" stroke-linecap="round"/>
<path d="M71.9 30.0035C70.703 26.4355 65.674 25.9485 63.906 29.2795L29.251 94.6515C27.636 97.6995 29.746 101.372 33.24 101.591L35.736 101.748L38.341 101.912C41.172 102.089 43.853 100.644 45.216 98.2015L59.779 72.0965C59.878 71.9195 60.033 71.7985 60.209 71.7385C60.49 71.6405 60.822 71.7005 61.05 71.9365L71.5401 82.8505L82.322 61.0985L71.9 30.0035Z" fill="#4C4C4C" stroke="black" stroke-width="0.264" stroke-linecap="round"/>
</svg>
