<svg width="96" height="96" viewBox="0 0 96 96" fill="none" xmlns="http://www.w3.org/2000/svg">
<g clip-path="url(#clip0_11_2)">
<mask id="mask0_11_2" style="mask-type:luminance" maskUnits="userSpaceOnUse" x="0" y="0" width="96" height="96">
<path d="M96 0H0V96H96V0Z" fill="white"/>
</mask>
<g mask="url(#mask0_11_2)">
<path d="M62.6973 5.21331L16.4121 7.11461L1.77753 84.0912L21.9882 86.573L27.5159 75.8631L25.5581 75.7479C23.9424 75.6455 21.8177 73.0394 22.5639 71.6021L48.1296 21.968C48.9357 20.1254 52.1601 19.8951 53.4269 21.8528L54.0027 23.1197L62.6973 5.21331Z" fill="white"/>
<path d="M53.7772 22.454L61.2533 45.2822C61.3247 45.4988 61.3097 45.7349 61.2119 45.941L53.5421 62.1602L46.3804 54.6056C45.7666 53.9573 44.699 54.0978 44.2718 54.882L34.0409 73.7084C33.1864 75.2688 31.5062 76.1936 29.7305 76.0796L24.9812 75.7745C22.6769 75.627 21.2858 73.1591 22.351 71.1116L47.9062 21.9738C49.2121 19.4621 52.8962 19.7639 53.7772 22.454Z" fill="#666666"/>
<path d="M63.9054 1.99229L54.0315 21.8495C53.9025 22.1097 53.7954 22.4978 53.8875 22.7741L70.9313 74.8266C71.7051 77.1666 69.8142 79.5609 67.3613 79.3179L54.5786 78.1662C53.1725 78.0269 52.0703 77.4569 51.6995 76.0934L45.4418 53.6313C45.3726 53.3826 45.0351 53.3447 44.912 53.5715L34.2044 73.3296C33.3557 74.8751 31.3484 76.0958 29.5887 75.9782L28.0917 75.8631C27.6471 75.8331 27.3684 75.8102 27.1704 76.2086L21.9882 86.573L23.4852 86.6882L92.6966 94.1736L95.0264 1.14356C95.0424 0.503268 94.5116 -0.0172568 93.8712 0.0138365L64.8405 1.38309C64.4409 1.40152 64.0827 1.63415 63.9054 1.99229Z" fill="#919191"/>
<path d="M45.4233 53.5807L51.6995 76.0945C52.1601 78.0522 54.4334 78.1881 55.3847 78.2826L65.2884 79.2039L62.5821 71.776L45.4233 53.5807Z" fill="#999999"/>
<path d="M2.18066 84.3861L31.2587 90.2018L94.0787 95.9021L94.8848 42.4677L95.0575 0.203857L92.6968 94.1747L2.18066 84.3861Z" fill="#646464"/>
<path d="M27.2268 76.0404L21.8846 86.6571L92.4144 94.2312L94.8329 0.301758L63.9699 1.75738L53.678 22.5635L70.9751 75.1087C71.7467 77.4523 69.8672 79.8212 67.4085 79.6013L54.4796 78.4461C52.9847 78.3126 51.7307 77.2623 51.3368 75.8136C51.3368 75.8136 45.9059 56.5404 45.1653 53.7891C45.1343 53.6729 44.9777 53.6544 44.9189 53.7603L33.9798 73.629C33.0228 75.3114 31.1883 76.2996 29.2559 76.1728L27.2246 76.0394" stroke="black" stroke-width="0.263909" stroke-miterlimit="10"/>
<path d="M47.8371 22.0083L22.488 70.7499C21.3065 73.0221 22.8495 75.7595 25.4061 75.923L29.1374 76.1625C31.208 76.295 33.1691 75.2171 34.1652 73.3964L44.8176 53.9331C45.0065 53.5877 45.4775 53.5277 45.7469 53.8133L53.1587 61.673C53.2853 61.8066 53.5064 61.7732 53.5871 61.6074L61.2602 45.8292C61.2902 45.7682 61.2947 45.6968 61.274 45.6323L53.6526 22.4793C52.7775 19.8191 49.1315 19.5243 47.8394 22.0083H47.8371Z" stroke="black" stroke-width="0.263909" stroke-miterlimit="10"/>
<path d="M65.2367 79.3755L62.3577 71.4294L45.861 53.9354C45.6882 53.7524 45.3854 53.9216 45.4511 54.1646L51.2516 75.597C51.6962 77.2404 53.1276 78.4277 54.825 78.5601L65.2367 79.3755Z" stroke="black" stroke-width="0.263909" stroke-miterlimit="10"/>
<path d="M27.0749 76.3536C27.1473 76.2074 27.0414 76.0358 26.8779 76.037L25.6193 76.0404C22.8911 76.0392 21.1371 73.1453 22.3959 70.7258L47.8556 21.7953C49.0128 19.5704 52.197 19.5762 53.3463 21.8045L53.7195 22.6026L62.1332 5.46902L15.8397 7.4613L1.20752 84.4368L31.0341 90.3158L93.4947 95.7122C93.5639 95.7179 93.6053 95.6373 93.5604 95.5854L94.8329 0.260315L92.4146 94.2312L21.9363 86.6306L27.0749 76.3536Z" stroke="black" stroke-width="0.263909" stroke-miterlimit="10"/>
</g>
</g>
<defs>
<clipPath id="clip0_11_2">
<rect width="96" height="96" fill="white"/>
</clipPath>
</defs>
</svg>
