<svg width="64" height="64" viewBox="0 0 64 64" fill="none" xmlns="http://www.w3.org/2000/svg">
<g clip-path="url(#clip0_0_3)">
<path d="M41.7982 3.47553L10.9414 4.74306L1.185 56.0608L14.6588 57.7153L18.3439 50.5754L17.0387 50.4986C15.9616 50.4303 14.5451 48.6929 15.0426 47.7347L32.0864 14.6453C32.6238 13.4169 34.7734 13.2634 35.6179 14.5685L36.0018 15.4131L41.7982 3.47476V3.47553Z" fill="white"/>
<path d="M35.8514 14.9693L40.8355 30.1881C40.8831 30.3325 40.8731 30.4899 40.8079 30.6273L35.6947 41.4401L30.9202 36.4037C30.511 35.9715 29.7993 36.0652 29.5145 36.588L22.6939 49.1389C22.1242 50.1792 21.0041 50.7957 19.8203 50.7197L16.6541 50.5163C15.1179 50.418 14.1905 48.7727 14.9006 47.4077L31.9374 14.6492C32.808 12.9747 35.2648 13.1759 35.8521 14.9693H35.8514Z" fill="#666666"/>
<path d="M42.6036 1.32818L36.021 14.5663C35.935 14.7398 35.8636 14.9985 35.925 15.1827L47.2875 49.8844C47.8034 51.4444 46.5428 53.0406 44.9075 52.8786L36.3857 52.1108C35.4483 52.0179 34.7135 51.6379 34.4663 50.7289L30.2945 35.7542C30.2484 35.5884 30.0234 35.5631 29.9413 35.7143L22.8029 48.8864C22.2371 49.9167 20.8989 50.7305 19.7258 50.6521L18.7278 50.5754C18.4314 50.5554 18.2456 50.5401 18.1136 50.8057L14.6588 57.7153L15.6568 57.7921L61.7977 62.7824L63.3509 0.762363C63.3616 0.335502 63.0077 -0.0115147 62.5808 0.00921418L43.227 0.922052C42.9606 0.934336 42.7218 1.09019 42.6036 1.32895V1.32818Z" fill="#919191"/>
<path d="M30.2822 35.7205L34.4663 50.7297C34.7734 52.0348 36.2889 52.1254 36.9231 52.1884L43.5256 52.8026L41.7214 47.8507L30.2822 35.7205Z" fill="#999999"/>
<path d="M1.45374 56.2574L20.8391 60.1345L62.7191 63.9347L63.2565 28.3118L63.3716 0.135895L61.7978 62.7831L1.45374 56.2574Z" fill="#646464"/>
<path d="M18.1512 50.6936L14.5897 57.7714L61.6096 62.8208L63.2219 0.201172L42.6466 1.17159L35.7853 15.0423L47.3167 50.0725C47.8311 51.6349 46.5781 53.2141 44.939 53.0675L36.3197 52.2974C35.3231 52.2084 34.4871 51.5082 34.2245 50.5424C34.2245 50.5424 30.6039 37.6936 30.1102 35.8594C30.0895 35.7819 29.9851 35.7696 29.9459 35.8402L22.6532 49.086C22.0152 50.2076 20.7922 50.8664 19.5039 50.7819L18.1497 50.6929" stroke="black" stroke-width="0.263909" stroke-miterlimit="10"/>
<path d="M31.8914 14.6722L14.992 47.1666C14.2043 48.6814 15.233 50.5063 16.9374 50.6153L19.4249 50.775C20.8053 50.8633 22.1127 50.1447 22.7768 48.9309L29.8784 35.9554C30.0043 35.7251 30.3183 35.6851 30.4979 35.8755L35.4391 41.1153C35.5235 41.2044 35.6709 41.1821 35.7247 41.0716L40.8401 30.5528C40.8601 30.5121 40.8631 30.4645 40.8493 30.4215L35.7684 14.9862C35.185 13.2127 32.7543 13.0162 31.8929 14.6722H31.8914Z" stroke="black" stroke-width="0.263909" stroke-miterlimit="10"/>
<path d="M43.4911 52.917L41.5718 47.6196L30.574 35.9569C30.4588 35.8349 30.2569 35.9477 30.3007 36.1097L34.1677 50.398C34.4641 51.4936 35.4184 52.2851 36.55 52.3734L43.4911 52.917Z" stroke="black" stroke-width="0.263909" stroke-miterlimit="10"/>
<path d="M18.0499 50.9024C18.0982 50.8049 18.0276 50.6905 17.9186 50.6913L17.0795 50.6936C15.2607 50.6928 14.0914 48.7635 14.9306 47.1505L31.9037 14.5302C32.6752 13.0469 34.798 13.0508 35.5642 14.5363L35.813 15.0684L41.4221 3.64599L10.5598 4.97418L0.804993 56.2912L20.6894 60.2105L62.3298 63.8081C62.3759 63.8119 62.4035 63.7582 62.3736 63.7236L63.2219 0.173523L61.6097 62.8208L14.6242 57.7537L18.0499 50.9024Z" stroke="black" stroke-width="0.263909" stroke-miterlimit="10"/>
</g>
<defs>
<clipPath id="clip0_0_3">
<rect width="64" height="64" fill="white"/>
</clipPath>
</defs>
</svg>
