<svg width="100" height="75" viewBox="0 0 100 75" fill="none" xmlns="http://www.w3.org/2000/svg">
<path d="M84.7095 6.28112C78.1394 3.30454 71.2034 1.19285 64.0788 0C63.1038 1.72469 62.2217 3.49916 61.436 5.31599C53.8469 4.18432 46.1292 4.18432 38.54 5.31599C37.754 3.49935 36.8718 1.7249 35.8973 0C28.768 1.20292 21.8275 3.31962 15.2508 6.29669C2.19435 25.4125 -1.34505 44.0535 0.424652 62.4298C8.07084 68.0202 16.6291 72.2718 25.7274 74.9998C27.7761 72.2732 29.5889 69.3805 31.1466 66.3526C28.188 65.2591 25.3323 63.91 22.6127 62.3209C23.3285 61.8072 24.0285 61.2779 24.7049 60.7642C32.6182 64.4468 41.2552 66.3562 49.9998 66.3562C58.7445 66.3562 67.3814 64.4468 75.2947 60.7642C75.979 61.3168 76.679 61.8461 77.3869 62.3209C74.6621 63.9125 71.8012 65.2643 68.8373 66.3604C70.3931 69.3869 72.206 72.2771 74.2565 74.9998C83.3626 72.2828 91.9274 68.0332 99.575 62.4376C101.651 41.1269 96.0277 22.6572 84.7095 6.28112ZM33.3882 51.1285C28.4567 51.1285 24.3824 46.6998 24.3824 41.2515C24.3824 35.8032 28.3151 31.3355 33.3725 31.3355C38.4299 31.3355 42.4727 35.8032 42.3862 41.2515C42.2997 46.6998 38.4142 51.1285 33.3882 51.1285ZM66.6114 51.1285C61.672 51.1285 57.6135 46.6998 57.6135 41.2515C57.6135 35.8032 61.5461 31.3355 66.6114 31.3355C71.6767 31.3355 75.688 35.8032 75.6015 41.2515C75.515 46.6998 71.6373 51.1285 66.6114 51.1285Z" fill="white"/>
</svg>
