<svg width="24" height="24" viewBox="0 0 24 24" fill="none" xmlns="http://www.w3.org/2000/svg">
<path d="M9.41664 23.9998C9.49152 23.9998 9.54769 23.9798 9.56641 23.9198L12.936 18.2798L20.0312 20.8199C20.0499 20.8199 20.0686 20.8399 20.0873 20.8399C20.1248 20.8399 20.1435 20.8399 20.1809 20.8199C20.2184 20.7999 20.2558 20.7399 20.2745 20.6799L24 0.339813L9.36023 17.6199V23.8C9.36023 23.9 9.34151 23.96 9.4164 24L9.41664 23.9998Z" fill="white"/>
<path d="M0 13.5199C0 13.5999 0.0561638 13.6599 0.131047 13.6999L8.8736 16.84L23.2138 0L0.0936654 13.32C0.0375016 13.36 0 13.4399 0 13.5199Z" fill="white"/>
</svg>
