<svg width="24" height="24" viewBox="0 0 24 24" fill="none" xmlns="http://www.w3.org/2000/svg">
<g clip-path="url(#clip0_7_164)">
<path d="M5.0483 21.2868V10.4981H2.90892C2.32017 10.4981 1.78485 10.739 1.39766 11.1262C1.01047 11.5134 0.769531 12.0487 0.769531 12.6375V21.2868C0.769531 21.8765 1.00953 22.4118 1.39672 22.7981C1.78579 23.1853 2.32111 23.4262 2.92298 23.4262C3.51549 23.4187 4.04047 23.1797 4.42017 22.799C4.8083 22.4118 5.0483 21.8765 5.0483 21.2868ZM9.76574 18.0816H19.2138V18.6788H9.76574V18.0816ZM7.7848 15.7453H21.1948V16.3425H7.7848V15.7453ZM9.76574 13.4091H19.2138V14.0072H9.76574V13.4091ZM7.7848 11.0728H21.1948V11.671H7.7848V11.0728ZM4.61128 23.4273H21.0916C21.6813 23.4273 22.2166 23.1873 22.6029 22.8001C22.991 22.4129 23.231 21.8776 23.231 21.2879V6.87472H16.9319V0.575684H7.78579C7.19704 0.575684 6.66172 0.81662 6.27453 1.20381C5.88734 1.591 5.6464 2.12632 5.6464 2.71507V21.2889C5.6464 22.0408 5.33892 22.7261 4.84296 23.222C4.76983 23.2952 4.69202 23.3636 4.61139 23.4283L4.61128 23.4273ZM22.8081 6.27667L17.529 0.997628V6.27667H22.8081Z" fill="white"/>
</g>
<defs>
<clipPath id="clip0_7_164">
<rect width="24" height="24" fill="white"/>
</clipPath>
</defs>
</svg>
