<svg width="24" height="24" viewBox="0 0 24 24" fill="none" xmlns="http://www.w3.org/2000/svg">
<path d="M22.5 24.0052C23.3287 24.0052 24 23.334 24 22.5052V1.50522C24 0.677411 23.3287 0.00521904 22.5 0.00521904H1.5C0.671257 0.00521904 5.36442e-07 0.677411 5.36442e-07 1.50522V22.5052C5.36442e-07 23.334 0.671257 24.0052 1.5 24.0052H22.5ZM10.919 17.5984C10.3594 17.0387 10.3594 16.134 10.919 15.5744L13.289 13.5062L7.5 13.5053C6.67126 13.5053 6 12.834 6 12.0053C6 11.1765 6.67126 10.5053 7.5 10.5053H13.2713L10.9182 8.45497C10.3585 7.89529 10.3585 6.98965 10.9182 6.42997C11.4835 5.8731 12.3975 5.87029 12.9638 6.42997L17.5782 11.0032C18.1408 11.56 18.1408 12.4676 17.5782 13.0272L12.9638 17.5985C12.3984 18.1582 11.4843 18.1581 10.919 17.5984Z" fill="white"/>
</svg>
