<svg width="24" height="24" viewBox="0 0 24 24" fill="none" xmlns="http://www.w3.org/2000/svg">
<path d="M1.5 0.00521851C0.671256 0.00521851 0 0.676474 0 1.50522V22.5052C0 23.333 0.671256 24.0052 1.5 24.0052H22.5C23.3287 24.0052 24 23.333 24 22.5052V1.50522C24 0.676474 23.3287 0.00521851 22.5 0.00521851H1.5ZM13.081 6.41202C13.6406 6.9717 13.6406 7.8764 13.081 8.43608L10.711 10.5042L16.5 10.5051C17.3287 10.5051 18 11.1764 18 12.0051C18 12.8339 17.3287 13.5051 16.5 13.5051H10.7287L13.0818 15.5555C13.6415 16.1151 13.6415 17.0208 13.0818 17.5805C12.5165 18.1373 11.6025 18.1401 11.0362 17.5805L6.42175 13.0073C5.85924 12.4504 5.85924 11.5429 6.42175 10.9832L11.0362 6.41192C11.6016 5.85224 12.5157 5.85234 13.081 6.41202Z" fill="white"/>
</svg>
