<svg width="94" height="32" viewBox="0 0 94 32" fill="none" xmlns="http://www.w3.org/2000/svg">
<mask id="mask0_20_3" style="mask-type:alpha" maskUnits="userSpaceOnUse" x="0" y="0" width="94" height="32">
<rect width="94" height="32" fill="#D9D9D9"/>
</mask>
<g mask="url(#mask0_20_3)">
<rect x="-420.5" y="30.5" width="1215" height="873" fill="#2DA082" stroke="#2DA082"/>
<rect x="-158" y="-32" width="484" height="484" fill="black"/>
<path d="M-750 75.108L-726.562 27.054C-717.038 7.52683 -689.212 7.52683 -679.688 27.054C-670.163 46.5812 -642.337 46.5812 -632.812 27.054C-623.288 7.52683 -595.462 7.52683 -585.938 27.054C-576.413 46.5812 -548.587 46.5812 -539.062 27.054C-529.538 7.52683 -501.712 7.52683 -492.188 27.054C-482.663 46.5812 -454.837 46.5812 -445.312 27.054C-435.788 7.52683 -407.962 7.52683 -398.438 27.054C-388.913 46.5812 -361.087 46.5812 -351.562 27.054C-342.038 7.52683 -314.212 7.52683 -304.688 27.054C-295.163 46.5812 -267.337 46.5812 -257.812 27.054C-248.288 7.52683 -220.462 7.52683 -210.938 27.054C-201.413 46.5812 -173.587 46.5812 -164.062 27.054C-154.538 7.52683 -126.712 7.52683 -117.188 27.054C-107.663 46.5812 -79.8365 46.5812 -70.3125 27.054C-60.7885 7.52683 -32.9615 7.52683 -23.4375 27.054C-13.9135 46.5812 13.9135 46.5812 23.4375 27.054C32.9615 7.52683 60.7885 7.52683 70.3125 27.054C79.8365 46.5812 107.663 46.5812 117.188 27.054C126.712 7.52683 154.538 7.52683 164.062 27.054C173.587 46.5812 201.413 46.5812 210.938 27.054C220.462 7.52683 248.288 7.52683 257.812 27.054C267.337 46.5812 295.163 46.5812 304.688 27.054C314.212 7.52683 342.038 7.52683 351.562 27.054C361.087 46.5812 388.913 46.5812 398.438 27.054C407.962 7.52683 435.788 7.52683 445.312 27.054C454.837 46.5812 482.663 46.5812 492.188 27.054C501.712 7.52683 529.538 7.52683 539.062 27.054C548.587 46.5812 576.413 46.5812 585.938 27.054C595.462 7.52683 623.288 7.52683 632.812 27.054C642.337 46.5812 670.163 46.5812 679.688 27.054C689.212 7.52683 717.038 7.52683 726.562 27.054C736.087 46.5812 763.913 46.5812 773.438 27.054C782.962 7.52683 810.788 7.52683 820.312 27.054C829.837 46.5812 857.663 46.5812 867.188 27.054C876.712 7.52683 904.538 7.52683 914.062 27.054C923.587 46.5812 951.413 46.5812 960.938 27.054C970.462 7.52683 998.288 7.52683 1007.81 27.054C1017.34 46.5812 1045.16 46.5812 1054.69 27.054C1064.21 7.52683 1092.04 7.52683 1101.56 27.054C1111.09 46.5812 1138.91 46.5812 1148.44 27.054C1157.96 7.52683 1185.79 7.52683 1195.31 27.054C1204.84 46.5812 1232.66 46.5812 1242.19 27.054C1251.71 7.52683 1279.54 7.52683 1289.06 27.054C1298.59 46.5812 1326.41 46.5812 1335.94 27.054C1345.46 7.52683 1373.29 7.52683 1382.81 27.054C1392.34 46.5812 1420.16 46.5812 1429.69 27.054C1439.21 7.52683 1467.04 7.52683 1476.56 27.054C1486.09 46.5812 1513.91 46.5812 1523.44 27.054C1532.96 7.52683 1560.79 7.52683 1570.31 27.054C1579.84 46.5812 1607.66 46.5812 1617.19 27.054C1626.71 7.52683 1654.54 7.52683 1664.06 27.054C1673.59 46.5812 1701.41 46.5812 1710.94 27.054C1720.46 7.52683 1748.29 7.52683 1757.81 27.054C1767.34 46.5812 1795.16 46.5812 1804.69 27.054C1814.21 7.52683 1842.04 7.52683 1851.56 27.054C1861.09 46.5812 1888.91 46.5812 1898.44 27.054C1907.96 7.52683 1935.79 7.52683 1945.31 27.054C1954.84 46.5812 1982.66 46.5812 1992.19 27.054C2001.71 7.52683 2029.54 7.52683 2039.06 27.054C2048.59 46.5812 2076.41 46.5812 2085.94 27.054C2095.46 7.52683 2123.29 7.52683 2132.81 27.054C2142.34 46.5812 2170.16 46.5812 2179.69 27.054C2189.21 7.52683 2217.04 7.52683 2226.56 27.054L2250 75.108" stroke="#2DA082" stroke-width="24"/>
<rect x="29.5" y="18.5" width="37" height="38" fill="#2DA082" stroke="#2DA082"/>
</g>
</svg>
